<?xml version="1.0" encoding="UTF-8" standalone="no"?>
<!-- Created with Inkscape (http://www.inkscape.org/) -->

<svg
   version="1.1"
   id="svg712"
   width="1028.5685"
   height="1032.8181"
   viewBox="0 0 1028.5684 1032.8181"
   sodipodi:docname="ASKOR.svg"
   inkscape:version="1.2 (dc2aedaf03, 2022-05-15)"
   inkscape:export-filename="ASKOR.png"
   inkscape:export-xdpi="72"
   inkscape:export-ydpi="72"
   xmlns:inkscape="http://www.inkscape.org/namespaces/inkscape"
   xmlns:sodipodi="http://sodipodi.sourceforge.net/DTD/sodipodi-0.dtd"
   xmlns="http://www.w3.org/2000/svg"
   xmlns:svg="http://www.w3.org/2000/svg">
  <defs
     id="defs716" />
  <sodipodi:namedview
     id="namedview714"
     pagecolor="#505050"
     bordercolor="#eeeeee"
     borderopacity="1"
     inkscape:showpageshadow="0"
     inkscape:pageopacity="0"
     inkscape:pagecheckerboard="0"
     inkscape:deskcolor="#505050"
     showgrid="false"
     inkscape:zoom="0.42578125"
     inkscape:cx="402.78899"
     inkscape:cy="389.87156"
     inkscape:window-width="1920"
     inkscape:window-height="1009"
     inkscape:window-x="1912"
     inkscape:window-y="-8"
     inkscape:window-maximized="1"
     inkscape:current-layer="g718" />
  <g
     inkscape:groupmode="layer"
     inkscape:label="Image"
     id="g718"
     transform="translate(-894.44548,-264.06199)">
    <path
       style="fill:#000000"
       d="m 1819.3795,1295.9795 c -0.5613,-0.5613 -3.8021,-1.0597 -7.2018,-1.1075 -4.2468,-0.06 -6.885,-0.6328 -8.4295,-1.8309 -3.0587,-2.3725 -7.2794,-3.3516 -12.9982,-3.0152 -2.5601,0.1506 -17.301,-1.0935 -18.6409,-1.5732 -0.765,-0.274 -2.5091,0.2346 -3.8758,1.1301 -1.6813,1.1016 -2.7,1.28 -3.1502,0.5517 -0.6874,-1.1123 -6.9554,-0.9495 -8.8643,0.2302 -0.5943,0.3674 -1.3622,0.2122 -1.7065,-0.3447 -0.4025,-0.6513 -1.6584,-0.4787 -3.5194,0.4837 -3.3163,1.7149 -7.5856,1.9644 -8.4929,0.4963 -0.7041,-1.1392 -4.8141,-1.3526 -5.8623,-0.3044 -0.9141,0.9141 -3.5378,1.5035 -6.6377,1.491 -1.375,-0.01 -3.0709,0.4624 -3.7688,1.0397 -0.916,0.7579 -1.8195,0.5513 -3.25,-0.7433 -1.0896,-0.9861 -1.9812,-2.2054 -1.9812,-2.7094 0,-0.5041 -0.675,-1.5915 -1.5,-2.4165 -1.3333,-1.3333 -1.5088,-1.242 -1.5789,0.8215 -0.043,1.2768 -0.306,1.7589 -0.5834,1.0714 -0.2774,-0.6875 -0.9434,-1.25 -1.4801,-1.25 -0.5366,0 -0.6975,0.45 -0.3576,1 0.9866,1.5963 -1.6634,1.1549 -2.8898,-0.4813 -0.7474,-0.9974 -1.5833,-1.1832 -2.558,-0.5687 -1.1601,0.7312 -0.9179,1.1541 1.2186,2.1275 1.4666,0.6682 2.4329,1.5929 2.1475,2.0548 -0.6956,1.1254 -3.8589,0.5769 -5.7568,-0.9983 -1.132,-0.9394 -2.057,-0.9927 -3.5318,-0.2034 -2.5978,1.3903 -6.3991,1.3594 -9.553,-0.078 -1.9527,-0.8897 -2.8679,-0.8562 -4.0795,0.1493 -1.2795,1.0619 -2.2738,1.0615 -5.4972,0 -2.9605,-0.9771 -4.2756,-1.0162 -5.3096,-0.158 -0.7559,0.6273 -1.6848,0.8303 -2.0641,0.451 -0.3793,-0.3794 -7.0928,-0.7324 -14.9188,-0.7845 -7.826,-0.052 -14.8993,-0.512 -15.7183,-1.0219 -1.3326,-0.8295 -13.2522,-1.4714 -26.2147,-1.4117 -2.599,0.012 -5.6739,-0.4859 -6.8332,-1.1063 -1.6652,-0.8912 -2.4694,-0.8007 -3.8309,0.4315 -1.5468,1.3998 -1.9459,1.4034 -3.8994,0.035 -1.6891,-1.1831 -2.6408,-1.2756 -4.2522,-0.4132 -1.1419,0.6111 -3.3427,0.8329 -4.8907,0.4929 -1.8644,-0.4095 -2.9831,-0.1788 -3.314,0.6834 -0.3774,0.9836 -3.2791,1.2424 -11.8768,1.0594 -17.6109,-0.375 -30.213,-0.2528 -32.0431,0.3107 -0.9163,0.2821 -1.9471,0.058 -2.2908,-0.4983 -0.6361,-1.0292 -16.8307,-0.6287 -18.5919,0.4597 -0.5006,0.3094 -1.932,0.01 -3.1808,-0.6681 -2.5759,-1.3961 -10.6711,-1.8319 -11.4232,-0.615 -0.2728,0.4413 -2.6549,0.516 -5.2936,0.166 -2.743,-0.3639 -5.0531,-0.2232 -5.394,0.3285 -0.3281,0.5308 -2.3426,0.7904 -4.4768,0.577 -2.6567,-0.2657 -4.2849,0.1 -5.1634,1.1579 -1.1518,1.3879 -1.4105,1.3717 -2.5294,-0.1585 -1.1675,-1.5968 -1.3647,-1.5862 -3.1183,0.1675 -1.7005,1.7005 -1.9016,1.7182 -2.1953,0.1934 -0.3872,-2.0098 -0.6138,-2.0398 -3.2457,-0.4286 -1.7125,1.0483 -2.1952,0.9804 -2.9918,-0.4207 -0.8694,-1.5292 -1.213,-1.5394 -4.0559,-0.1212 -2.6158,1.3049 -3.2415,1.3319 -3.9642,0.1707 -0.6922,-1.1122 -1.2411,-1.1414 -2.8394,-0.151 -1.6087,0.9968 -2.2593,0.9498 -3.4591,-0.25 -1.9543,-1.9543 -2.6206,-1.8639 -2.6206,0.3555 0,2.5337 -1.0651,3.3576 -2.6453,2.0461 -0.7311,-0.6067 -1.8975,-0.8901 -2.592,-0.6297 -0.6945,0.2605 -2.1627,0.1396 -3.2627,-0.2686 -1.276,-0.4735 -2.6267,-0.1925 -3.7312,0.7764 -1.4063,1.2335 -2.0164,1.2819 -3.25,0.2581 -1.2232,-1.0151 -1.8206,-1.01 -3.0694,0.026 -1.3097,1.087 -1.6386,0.9506 -2.1166,-0.8775 -0.6652,-2.5436 -1.616,-2.7331 -3.3328,-0.6645 -0.6847,0.825 -1.8648,1.5 -2.6224,1.5 -0.7577,0 -1.3776,-0.675 -1.3776,-1.5 0,-1.6348 -1.5535,-2.0314 -2.4262,-0.6194 -1.5348,2.4833 -10.5191,1.3111 -10.5813,-1.3806 -0.015,-0.6667 -0.268,-0.6667 -0.7578,0 -0.4041,0.55 -1.8075,1.604 -3.1187,2.3422 -1.9255,1.084 -2.536,1.0963 -3.1738,0.064 -0.6397,-1.0351 -1.0869,-1.0313 -2.3532,0.02 -1.6849,1.3983 -5.0928,0.6979 -4.1361,-0.85 1.1291,-1.8269 -1.6074,-2.2464 -3.4972,-0.5361 -1.5117,1.3681 -2.2216,1.4841 -3.3503,0.5474 -1.9714,-1.6362 -6.3447,-2.3184 -7.0936,-1.1066 -0.3844,0.6221 -1.4834,0.4286 -2.9228,-0.5145 -2.0598,-1.3497 -2.442,-1.3485 -3.5703,0.011 -1.4648,1.7649 -4.5974,2.0132 -5.5688,0.4415 -0.4047,-0.6549 -1.7093,-0.7905 -3.309,-0.3441 -1.4525,0.4053 -7.0188,0.8286 -12.3695,0.9408 -6.1861,0.1296 -10.2933,0.6726 -11.2796,1.4911 -1.1228,0.9319 -2.164,1.008 -3.7714,0.2756 -1.373,-0.6255 -3.1438,-0.67 -4.6399,-0.1165 -1.5329,0.567 -2.7972,0.5174 -3.45,-0.1354 -1.3476,-1.3476 -5.6305,-1.333 -5.6305,0.019 0,0.6859 -0.5773,0.7266 -1.6659,0.1174 -0.9262,-0.5183 -2.9051,-0.5769 -4.4566,-0.132 -3.0123,0.8639 -6.9963,0.2162 -8.0003,-1.3006 -0.379,-0.5726 -1.4553,-0.4955 -2.7489,0.1968 -2.346,1.2556 -11.7976,0.4595 -13.8544,-1.167 -0.6743,-0.5332 -3.3743,-0.6885 -6,-0.3452 -2.6256,0.3434 -6.7989,0.6091 -9.2739,0.5904 -2.475,-0.019 -7.65,0 -11.5,0.037 -10.2646,0.1049 -12.1477,0.096 -21.5,-0.1011 -4.675,-0.099 -9.85,-0.1405 -11.5,-0.093 -8.2015,0.2356 -24.196,-0.524 -25.6719,-1.2192 -0.9402,-0.4429 -2.6154,-0.2825 -3.8281,0.3665 -1.186,0.6347 -2.7834,0.9133 -3.55,0.6192 -0.7665,-0.2941 -2.7657,-0.057 -4.4427,0.5281 -2.1915,0.764 -3.4258,0.7503 -4.3885,-0.049 -0.854,-0.7088 -4.1992,-0.9323 -9.2291,-0.6167 -17.499,1.098 -21.9868,1.1354 -24.1101,0.2011 -1.5758,-0.6934 -2.6672,-0.6062 -3.7594,0.3002 -0.8464,0.7025 -3.8973,1.4672 -6.7796,1.6994 -2.8823,0.2321 -6.8156,0.6534 -8.7406,0.9362 -1.925,0.2828 -5.6375,0.4701 -8.25,0.4162 -2.6125,-0.054 -4.7501,0.2536 -4.7503,0.6835 -10e-5,0.4298 -9.7876,0.8345 -21.75,0.8993 -11.9623,0.065 -22.8747,0.1615 -24.2497,0.2147 -9.4093,0.3646 -16,0.079 -16,-0.6923 0,-0.4973 -3.0375,-0.7564 -6.75,-0.5757 -3.7125,0.1807 -12.375,0.6102 -19.25,0.9545 -6.875,0.3443 -13.175,0.5855 -14,0.536 -2.2972,-0.1379 -20.2053,0.076 -22.75,0.2719 -1.2375,0.095 -2.25,0.4206 -2.25,0.7231 0,0.3025 -1.575,0.55 -3.5,0.55 -1.925,0 -3.5,-0.3804 -3.5,-0.8453 0,-0.4649 -1.575,-0.5499 -3.5,-0.1887 -2.2181,0.4161 -3.5,0.267 -3.5,-0.4072 0,-1.0601 -3.18508,-0.937 -8.0742,0.3121 -1.72765,0.4414 -2.98635,0.1611 -3.82746,-0.8524 -0.94315,-1.1364 -1.86881,-1.2761 -3.7409,-0.5643 -3.40911,1.2961 -3.35744,1.3292 -3.35744,-2.1478 0,-2.2526 -0.5437,-3.2358 -2,-3.6167 -1.1,-0.2876 -2,-0.868 -2,-1.2897 0,-0.4217 -0.95845,-1.0174 -2.12988,-1.3237 -1.47473,-0.3857 -1.93613,-1.0619 -1.5,-2.1984 0.34643,-0.9028 0.62988,-2.5244 0.62988,-3.6035 0,-1.3139 0.57811,-1.865 1.75,-1.6682 2.79701,0.4696 2.04611,-2.5373 -0.99797,-3.9963 -2.70065,-1.2944 -2.72055,-1.3701 -1.15569,-4.3962 1.1637,-2.2504 1.28212,-3.2708 0.43997,-3.7913 -1.44136,-0.8908 -0.29117,-6.0224 1.34986,-6.0224 1.4893,0 4.21198,-3.1585 5.0799,-5.8931 0.36779,-1.1588 1.25499,-2.1069 1.97156,-2.1069 0.82788,0 1.25901,-1.1848 1.18261,-3.25 -0.10499,-2.8377 0.22868,-3.2901 2.63014,-3.5665 1.51272,-0.174 3.21605,-1.1865 3.78519,-2.25 0.56914,-1.0634 1.69396,-1.9335 2.49961,-1.9335 0.80565,0 1.46482,-0.6216 1.46482,-1.3813 0,-0.7597 1.575,-2.5826 3.5,-4.0509 1.925,-1.4683 3.5,-3.5578 3.5,-4.6434 0,-1.1854 0.9987,-2.3536 2.5,-2.9244 1.375,-0.5228 2.5,-1.3518 2.5,-1.8424 0,-0.4905 1.8,-2.083 4,-3.5389 2.2462,-1.4865 4,-3.4498 4,-4.4779 0,-1.7083 2.8668,-5.1408 4.2935,-5.1408 0.8763,0 4.7642,-3.4132 11.9447,-10.4864 5.9203,-5.8318 8.5678,-7.8554 11.8791,-9.0795 0.8895,-0.3289 3.7379,-3.4861 6.3298,-7.016 2.5918,-3.53 5.1743,-6.4181 5.7388,-6.4181 0.5644,0 2.7183,-1.3401 4.7864,-2.978 2.1359,-1.6917 5.2217,-3.0956 7.1439,-3.25 3.2036,-0.2575 3.3696,-0.1123 3.1162,2.728 l -0.2676,3 1.596,-2.8387 c 1.252,-2.2268 2.0945,-2.7137 3.9081,-2.2585 1.7372,0.4361 2.718,-0.039 3.9447,-1.9112 1.8837,-2.875 4.5722,-3.3068 4.6168,-0.7416 0.029,1.6667 0.079,1.6667 1.0497,0 2.355,-4.0433 4.692,-0.1437 2.4788,4.1362 -0.7849,1.5177 -2.1357,3.3476 -3.0019,4.0665 -0.8662,0.7189 -1.8534,3.0486 -2.1938,5.1772 -0.3403,2.1285 -0.9625,3.8701 -1.3826,3.8701 -0.4201,0 -1.0277,1.0516 -1.3503,2.3369 -0.3226,1.2853 -2.1714,4.0174 -4.1084,6.0712 -1.9371,2.0539 -3.5219,4.1727 -3.5219,4.7086 0,0.5358 -1.1555,2.1297 -2.5678,3.542 -2.4676,2.4676 -4.2042,5.8329 -4.9719,9.6347 -0.2343,1.1602 0.4689,2.1094 1.9916,2.6883 1.2946,0.4922 2.646,1.3677 3.0031,1.9455 0.4284,0.6931 1.4822,0.5049 3.0971,-0.5533 1.508,-0.9881 2.4479,-1.1758 2.4479,-0.4889 0,0.7643 4.1942,1.115 13.3333,1.115 7.3334,0 13.6464,0.313 14.029,0.6956 1.1289,1.1289 3.7084,1.228 6.3016,0.2421 3.9678,-1.5086 15.2009,-1.8055 16.3409,-0.4319 0.6848,0.8251 3.9207,1.1239 10.1671,0.9388 6.4692,-0.1917 9.7777,0.1315 11.255,1.0995 1.3663,0.8952 2.6068,1.0531 3.5745,0.4551 0.8151,-0.5038 2.5041,-0.6595 3.7533,-0.3459 1.2492,0.3135 2.9747,-0.014 3.8345,-0.7273 1.0399,-0.8631 1.7888,-0.9507 2.237,-0.2616 1.2243,1.882 3.6137,2.0588 8.4945,0.6286 2.6515,-0.7769 5.3515,-1.2299 6,-1.0067 0.6486,0.2232 2.4809,0.038 4.0717,-0.4112 1.5908,-0.4495 3.3657,-0.5246 3.9442,-0.1671 0.5785,0.3576 2.877,0.5334 5.1076,0.3908 5.6709,-0.3625 18.5603,-0.2243 21.5558,0.2311 1.375,0.2091 3.625,-0.045 5,-0.564 1.375,-0.5193 5.5171,-1.0568 9.2047,-1.1943 5.1016,-0.1904 6.8376,0.096 7.2605,1.1984 0.4008,1.0444 1.4668,1.2777 3.8204,0.8362 2.5964,-0.4871 3.6514,-0.1606 5.1547,1.5951 1.8008,2.1032 1.9214,2.1183 2.5524,0.3195 0.4982,-1.4202 0.8599,-1.5683 1.4598,-0.5977 0.6451,1.0438 0.9577,1.0311 1.6358,-0.066 0.4611,-0.7463 1.8673,-1.4556 3.125,-1.5764 5.5398,-0.5322 17.5658,-0.3853 20.5367,0.2508 2.1374,0.4576 3.25,0.3146 3.25,-0.4177 0,-1.6217 2.5486,-1.3623 4.0187,0.4091 0.7539,0.9083 2.0425,1.2754 3.1941,0.9098 1.1624,-0.3689 2.6978,0.082 3.8589,1.1325 1.0605,0.9598 1.9846,1.4503 2.0533,1.0901 0.069,-0.3603 0.1854,-1.2175 0.2591,-1.905 0.079,-0.7331 1.5776,-1.2548 3.625,-1.2615 1.92,-0.01 3.9701,-0.3189 4.5558,-0.6946 1.5251,-0.9783 11.3656,-0.096 12.8717,1.1535 0.7374,0.612 3.8564,0.8506 7.4582,0.5705 3.8231,-0.2973 6.9083,-0.033 8.0668,0.6902 1.4764,0.922 2.2455,0.8649 3.6107,-0.2683 0.9541,-0.7919 3.3532,-1.5396 5.3312,-1.6615 10.575,-0.652 14.9364,-1.0927 16.8619,-1.7038 1.2635,-0.4011 3.4161,-0.015 5.2749,0.9463 1.8063,0.9341 3.8452,1.3118 4.8,0.8891 2.2978,-1.0174 9.4817,-1.3099 33.8559,-1.3784 5.7227,-0.016 7.515,1.2499 4.2462,2.9993 -1.1625,0.6222 -1.9132,1.3318 -1.6681,1.5768 0.2451,0.2451 2.8038,-1.1413 5.6861,-3.081 5.6024,-3.7701 6.4823,-3.9566 12.2949,-2.6069 2.3431,0.5441 3.9824,0.5047 4.3591,-0.1048 0.3361,-0.5438 1.7747,-0.6605 3.2447,-0.2632 3.3261,0.8989 9.9538,0.6188 12.0626,-0.5098 0.8821,-0.4721 3.7251,-1.0916 6.3178,-1.3767 2.5927,-0.2851 5.1941,-0.8152 5.781,-1.1779 0.5869,-0.3627 1.7224,-0.1156 2.5233,0.5491 1.0513,0.8724 1.8182,0.908 2.7582,0.1279 0.7162,-0.5943 2.1968,-0.8466 3.2905,-0.5606 1.0936,0.286 5.1202,0.6046 8.9479,0.7081 5.8182,0.1573 6.939,0.4622 6.8339,1.8591 -0.1585,2.1069 2.345,1.2834 3.0803,-1.0133 0.7315,-2.2844 15.6825,-2.8776 17.8519,-0.7083 0.7943,0.7944 2.3618,1.1887 3.5206,0.8857 1.2822,-0.3353 3.1226,0.2669 4.7657,1.5594 3.1423,2.4717 6.2386,2.7116 7.797,0.6041 0.6106,-0.8259 3.0395,-1.6847 5.3976,-1.9086 2.3581,-0.2239 4.9456,-0.9533 5.75,-1.6209 1.12,-0.9295 1.7931,-0.9396 2.8736,-0.043 0.9645,0.8005 1.616,0.8393 2.059,0.1225 0.3564,-0.5767 2.3949,-1.0486 4.53,-1.0486 2.1351,0 4.1601,-0.45 4.5,-1 0.3399,-0.55 3.7415,-1 7.559,-1 4.2185,0 6.941,-0.4154 6.941,-1.059 0,-0.5825 0.515,-0.7407 1.1444,-0.3517 1.7065,1.0546 45.8045,1.0625 46.1562,0.01 0.3816,-1.1441 4.8733,-1.5664 6.1994,-0.583 0.55,0.4079 3.7,0.7774 7,0.8212 3.3,0.044 7.7892,0.2943 9.976,0.5568 2.1867,0.2625 4.5276,0.019 5.202,-0.5403 0.689,-0.5719 2.2325,-0.685 3.524,-0.2583 3.2603,1.0772 5.805,1.2036 6.3538,0.3157 0.2592,-0.4193 1.9246,-0.3455 3.7011,0.164 4.5524,1.3056 8.7374,1.1512 8.7749,-0.3237 0.02,-0.7872 0.5056,-0.6268 1.3114,0.4332 1.0437,1.3729 2.4664,1.592 7.7182,1.1885 7.171,-0.551 7.2342,-0.5516 18.4386,-0.1523 4.4,0.1567 8.5909,0.6656 9.313,1.1308 0.8084,0.5207 1.9614,0.2709 3,-0.65 1.0371,-0.9194 3.1317,-1.3744 5.437,-1.1809 2.0625,0.1731 3.75,-0.1245 3.75,-0.6613 0,-0.5368 0.45,-0.6979 1,-0.358 0.55,0.3399 1,0.179 1,-0.3576 0,-0.5367 -0.5625,-1.2027 -1.25,-1.4801 -0.7467,-0.3013 -0.5454,-0.5362 0.5,-0.5834 0.9625,-0.043 1.75,0.323 1.75,0.8141 0,1.7074 2.7684,1.9398 5.6012,0.4701 2.1056,-1.0924 3.4351,-1.212 5.0901,-0.4579 2.1276,0.9694 9.3784,1.2633 21.1189,0.8559 3.3668,-0.1169 5.595,0.2764 6.0883,1.0746 0.6026,0.9752 1.0758,0.9001 2.0991,-0.3328 0.9164,-1.1042 2.1913,-1.4007 4.1617,-0.9679 1.5624,0.3431 2.8751,0.2507 2.9172,-0.2055 0.042,-0.4562 0.2287,-1.6265 0.4146,-2.6006 0.1963,-1.0283 -2.3971,-5.2226 -6.1831,-10 -3.5867,-4.5259 -7.2316,-9.6914 -8.0998,-11.4789 -0.8683,-1.7875 -1.9978,-3.25 -2.51,-3.25 -0.5123,0 -0.6728,-0.9891 -0.3567,-2.198 0.3161,-1.2088 0.08,-2.7947 -0.5259,-3.5241 -1.5562,-1.8752 -0.088,-2.9292 2.1409,-1.5371 2.0239,1.2639 3.0435,0 3.0435,-3.7636 0,-2.2903 1.3,-3.183 3.4396,-2.362 1.0463,0.4015 1.4085,1.2879 1.0228,2.5032 -0.3284,1.0349 -0.1537,1.8816 0.3884,1.8816 0.5421,0 1.7025,0.2751 2.5788,0.6113 1.2123,0.4653 1.4294,0.1848 0.9081,-1.1736 -0.5404,-1.4082 -0.3145,-1.6428 1.0705,-1.1113 0.9654,0.3705 1.9225,0.6736 2.1267,0.6736 0.2042,0 1.1187,1.575 2.0321,3.5 0.9135,1.925 2.044,3.5 2.5121,3.5 0.4682,0 2.3295,1.2868 4.1361,2.8595 1.8066,1.5727 4.0774,2.7368 5.0461,2.5868 0.9687,-0.1499 2.222,0.5883 2.7852,1.6405 0.5631,1.0523 1.8183,1.9132 2.7893,1.9132 1.5755,0 6.4623,4.7691 21.1642,20.6542 5.3099,5.7373 12.685,11.7899 15.5,12.7206 1.1,0.3637 2.7711,2.3406 3.7137,4.3932 1.9789,4.3096 7.9063,7.4674 14.0604,7.4905 3.235,0.012 3.6889,0.2826 3.1778,1.893 -0.6474,2.0398 3.1913,9.187 4.4999,8.3783 1.5797,-0.9763 6.762,7.2699 6.1746,9.8255 -0.1081,0.4704 0.2653,1.4118 0.8298,2.092 0.5646,0.6802 0.7344,1.5288 0.3774,1.8857 -0.3569,0.357 0.7438,1.9801 2.4462,3.607 3.4587,3.3053 5.6842,6.9293 4.799,7.8145 -0.3207,0.3208 0.1369,1.3789 1.017,2.3513 2.0498,2.2651 1.1296,3.7555 -1.9547,3.1659 -3.2832,-0.6276 -4.0815,1.1392 -2.2099,4.8909 1.6849,3.3774 0.7643,5.8374 -2.1845,5.8374 -1.1654,0 -1.3792,0.7959 -0.9404,3.5 0.4284,2.6399 0.2148,3.5 -0.8692,3.5 -0.7904,0 -1.4371,0.417 -1.4371,0.9268 0,0.5097 -1.4191,1.6347 -3.1536,2.5 -3.7388,1.8651 -3.2188,1.8008 -4.4669,0.5527 z m -364.6964,-22.167 c -0.3192,-0.7977 -0.5562,-0.5608 -0.6042,0.6042 -0.043,1.0541 0.193,1.6448 0.5253,1.3125 0.3323,-0.3323 0.3678,-1.1948 0.079,-1.9167 z M 1457,1237 c 0,-0.55 -0.45,-1 -1,-1 -0.55,0 -1,0.45 -1,1 0,0.55 0.45,1 1,1 0.55,0 1,-0.45 1,-1 z m 51.0842,-0.8785 c 3.6213,-0.3962 7.8963,-0.3363 9.5,0.1331 2.7821,0.8143 23.1379,0.3567 24.0349,-0.5404 0.8672,-0.8671 -2.2599,-2.372 -7.6191,-3.6667 -3.025,-0.7308 -6.3571,-1.919 -7.4046,-2.6405 -1.3317,-0.9173 -2.4567,-1.0164 -3.7398,-0.3297 -1.3297,0.7116 -2.5267,0.5291 -4.3454,-0.6626 -2.2794,-1.4935 -2.9621,-1.2766 -2.6286,0.8353 0.065,0.4125 -0.3797,0.75 -0.9886,0.75 -0.6088,0 -0.8767,0.6 -0.5953,1.3333 0.2814,0.7334 -0.01,1.4154 -0.643,1.5157 -10.3113,1.6286 -18.3465,0.6621 -17.8609,-2.1484 0.4131,-2.3907 -1.1464,-2.1162 -4.63,0.815 -2.7983,2.3546 -3.0971,2.4083 -4.6675,0.8379 -1.3993,-1.3994 -1.8203,-1.4472 -2.5365,-0.2885 -1.0816,1.7502 1.4369,4.7004 4.3946,5.1478 2.4762,0.3745 10.2758,-0.057 19.7298,-1.0913 z M 1450,1236 c 0,-0.55 -0.45,-1 -1,-1 -0.55,0 -1,0.45 -1,1 0,0.55 0.45,1 1,1 0.55,0 1,-0.45 1,-1 z m 63.4165,-6.6431 c 0.3468,-0.9037 0.4249,-1.8488 0.1736,-2.1002 -0.7948,-0.7947 -2.5901,0.8012 -2.5901,2.3023 0,1.9615 1.6389,1.8244 2.4165,-0.2021 z m -19.4172,-1.9819 c 4e-4,-0.6187 -1.1243,-1.125 -2.4993,-1.125 -1.375,0 -2.5,0.5711 -2.5,1.2692 0,0.7255 1.0706,1.2075 2.4993,1.125 1.3746,-0.079 2.4996,-0.6504 2.5,-1.2692 z M 1902,1226.3 c 0,-1.3222 -0.2667,-1.4333 -1.2,-0.5 -0.66,0.66 -1.785,1.2 -2.5,1.2 -1.5302,0 -5.3,-3.5564 -5.3,-5 0,-1.3419 -1.152,-1.26 -4.9934,0.3552 -3.024,1.2715 -3.5239,1.1634 -8.0927,-1.75 -2.6782,-1.7079 -4.8795,-3.8337 -4.8917,-4.7241 -0.012,-0.8904 -2.7222,-4.0239 -6.0222,-6.9633 -3.3,-2.9394 -6,-5.7053 -6,-6.1465 0,-1.575 -7.305,-11.7713 -8.4334,-11.7713 -0.6326,0 -3.1376,-2.025 -5.5666,-4.5 -2.429,-2.475 -4.9977,-4.5 -5.7082,-4.5 -0.7105,0 -1.2918,-0.6447 -1.2918,-1.4326 0,-0.7879 -0.9214,-1.7251 -2.0476,-2.0825 -1.1262,-0.3574 -5.0637,-3.6859 -8.75,-7.3965 -3.6863,-3.7107 -7.9779,-7.5752 -9.5369,-8.5879 -1.559,-1.0127 -5.1089,-5.2521 -7.8887,-9.4209 -2.7799,-4.1688 -6.0043,-8.6291 -7.1655,-9.9119 -1.3316,-1.4709 -2.1113,-3.6716 -2.1113,-5.9591 0,-2.6408 -0.5536,-3.9099 -2.0359,-4.6678 -1.1198,-0.5724 -3.1172,-2.0533 -4.4386,-3.2908 -1.3214,-1.2375 -2.7678,-2.25 -3.2141,-2.25 -0.4463,0 -0.8114,-0.5901 -0.8114,-1.3114 0,-0.7213 -0.9,-2.2775 -2,-3.4582 -2.0965,-2.2503 -2.7155,-7.6702 -0.9973,-8.7321 0.6668,-0.4121 0.655,-1.2693 -0.035,-2.559 -0.7145,-1.3351 -0.7153,-1.9393 0,-1.9393 0.5694,0 1.0352,0.4766 1.0352,1.059 0,0.5825 0.4274,0.7949 0.9498,0.472 0.5224,-0.3229 1.4052,0.2639 1.9618,1.3038 1.0544,1.9703 6.7455,4.8414 7.7015,3.8854 0.7595,-0.7595 -1.4627,-4.7202 -2.6483,-4.7202 -0.5306,0 -0.9648,-0.9 -0.9648,-2 0,-1.4564 0.6667,-2 2.4529,-2 3.2997,0 7.5471,2.0222 7.5471,3.5931 0,0.6997 0.9005,1.5579 2.0011,1.9072 1.1005,0.3493 2.4181,1.4145 2.9279,2.367 0.5098,0.9526 3.2514,2.3649 6.0925,3.1385 2.8411,0.7737 6.136,2.4311 7.322,3.6832 1.1861,1.252 2.7784,2.2842 3.5384,2.2937 0.7601,0.01 2.8734,1.5987 4.6963,3.5316 1.8361,1.9468 4.7421,3.7998 6.5153,4.1544 3.1333,0.6267 3.1841,0.5789 2.4087,-2.2643 -0.4357,-1.5974 -0.9407,-6.0544 -1.1221,-9.9044 -0.1815,-3.85 -0.5902,-9.7 -0.9083,-13 -0.9732,-10.0955 -1.0547,-21.5 -0.1536,-21.5 0.4695,0 0.7508,-4.1625 0.6251,-9.25 -0.1256,-5.0875 0.3381,-13.075 1.0305,-17.75 0.6924,-4.675 1.2411,-11.7625 1.2194,-15.75 -0.022,-3.9875 0.2853,-7.25 0.6823,-7.25 0.3971,0 0.7473,-1.6875 0.7783,-3.75 0.031,-2.0625 0.1275,-4.65 0.2144,-5.75 0.6183,-7.8247 0.6474,-24.9467 0.046,-27 -0.3223,-1.1 -0.2812,-3.125 0.091,-4.5 0.3724,-1.375 0.2453,-3.06025 -0.2824,-3.74499 -0.6435,-0.83502 -0.3958,-2.1053 0.7523,-3.85748 1.4068,-2.14713 1.7901,-5.82236 2.1513,-20.6325 0.2418,-9.911 0.8292,-18.75014 1.3053,-19.64252 0.4762,-0.89238 0.5503,-4.66168 0.1647,-8.37622 -0.3856,-3.71454 -0.4078,-9.33954 -0.049,-12.5 0.6208,-5.47235 -0.4381,-27.22998 -1.5571,-31.99629 -0.2905,-1.2375 -0.061,-2.25 0.5099,-2.25 0.5716,0 0.7928,-1.01103 0.4922,-2.25 -0.3003,-1.2375 -0.7078,-4.5 -0.9057,-7.25 -0.1978,-2.75 -0.464,-5.45 -0.5915,-6 -0.1275,-0.55 -0.1441,-1.225 -0.037,-1.5 0.7858,-2.01486 0.7929,-12.59675 0.01,-14.06059 -0.5589,-1.04427 -0.5942,-2.05212 -0.083,-2.36805 0.4895,-0.3025 0.8568,-4.73699 0.8162,-9.85441 -0.041,-5.11742 0.1505,-9.73472 0.4245,-10.26067 0.2741,-0.52596 0.322,-2.08128 0.1064,-3.45628 -0.2155,-1.375 -0.4683,-9.7 -0.5617,-18.5 -0.093,-8.8 -0.5147,-16.53141 -0.9362,-17.1809 -0.4215,-0.6495 -0.3078,-1.46431 0.2527,-1.81069 0.6912,-0.42721 0.6887,-1.24699 -0.01,-2.54858 -1.1348,-2.1204 -0.3081,-6.95983 1.1889,-6.95983 0.5229,0 0.6013,-0.5625 0.1743,-1.25 -1.0401,-1.67472 -2.0456,-26.94531 -1.5021,-37.75 0.1245,-2.475 -0.037,-6.525 -0.3587,-9 -0.3218,-2.475 -0.7518,-10.125 -0.9556,-17 -0.2038,-6.875 -0.6726,-14.35983 -1.0418,-16.63297 -0.4244,-2.61302 -0.269,-4.38159 0.4226,-4.80901 1.3995,-0.86494 1.4249,-5.23544 0.035,-6.0942 -0.5822,-0.35982 -0.8145,-1.84888 -0.5163,-3.30902 0.741,-3.62708 0.7959,-9.35043 0.1682,-17.53205 -0.2902,-3.78249 -0.091,-7.69268 0.4422,-8.68931 0.5414,-1.01149 0.584,-2.05049 0.097,-2.35174 -0.4803,-0.29683 -0.7345,-2.94411 -0.5648,-5.88285 0.1696,-2.93874 -0.041,-7.91664 -0.4677,-11.062 -0.4268,-3.14536 -0.4352,-5.92947 -0.019,-6.18692 0.6368,-0.39358 0.5726,-10.94993 -0.067,-10.94993 -0.6635,0 -0.5669,-25.65854 0.098,-26.06951 0.4401,-0.272 0.5445,-1.16086 0.232,-1.97525 -0.3126,-0.81439 -0.049,-2.10622 0.5854,-2.87073 0.8764,-1.056 0.8601,-1.48784 -0.068,-1.79711 -1.7978,-0.59928 -1.9649,-12.71997 -0.2142,-15.5374 0.8012,-1.28938 0.9613,-2.25 0.3751,-2.25 -1.5424,0 -1.2292,-2.11474 0.6149,-4.1525 1.191,-1.31606 1.3472,-2.16037 0.5724,-3.09397 -1.0179,-1.22654 -0.9033,-6.6622 0.2822,-13.38013 0.3034,-1.71964 0.1089,-4.29121 -0.4322,-5.7146 -0.6602,-1.73651 -0.6451,-2.79743 0.046,-3.22455 0.5665,-0.3501 0.7333,-1.37853 0.3707,-2.2854 -0.3626,-0.90687 -0.8759,-3.44244 -1.1407,-5.63461 -0.2647,-2.19217 -0.9564,-4.27936 -1.537,-4.6382 -0.5806,-0.35884 -0.7207,-1.19443 -0.3112,-1.85688 0.4094,-0.66245 0.8434,-3.86276 0.9644,-7.1118 0.1629,-4.3725 -0.1272,-5.90736 -1.1163,-5.90736 -1.68,0 -1.7342,-2.20207 -0.095,-3.84164 0.9888,-0.98881 0.9889,-1.39789 10e-5,-2.00897 -0.9735,-0.60167 -0.9374,-1.18332 0.1674,-2.69415 0.9152,-1.25167 1.1019,-2.5004 0.5328,-3.56379 -0.4818,-0.90033 -0.6688,-2.70673 -0.4155,-4.01421 1.0599,-5.47008 0.783,-15.7995 -0.4637,-17.3017 -1.0591,-1.27613 -1.0027,-2.26811 0.3161,-5.56427 1.0434,-2.6078 1.2205,-4.01127 0.5061,-4.01127 -0.6044,0 -0.8378,-0.68033 -0.5187,-1.51185 0.3191,-0.83152 0.096,-2.57459 -0.4959,-3.87351 -0.7788,-1.70915 -0.7616,-2.94919 0.062,-4.48815 0.8135,-1.51994 0.8249,-2.12649 0.04,-2.12649 -0.6039,0 -0.9685,-0.7875 -0.8101,-1.75 0.1583,-0.9625 -0.1106,-2.38643 -0.5977,-3.1643 -0.8784,-1.40275 -1.8942,-12.20618 -2.0062,-21.3357 -0.063,-5.17614 -1.2296,-5.95584 -4.4866,-3 -2.9001,2.63189 -4.2071,3.58987 -8.444,6.1889 -3.6004,2.20862 -3.9407,2.25318 -4.8465,0.63459 -0.9063,-1.61939 -1.1345,-1.59023 -3.2722,0.41806 -1.2639,1.18737 -2.552,1.74784 -2.8625,1.24547 -1.5724,-2.5442 -17.6465,2.34003 -17.6465,5.36201 0,0.6423 -1.1289,1.38363 -2.5087,1.64739 -2.8085,0.53687 -2.7397,0.40501 3.1962,-6.13027 1.7531,-1.93014 2.9719,-3.85817 2.7085,-4.2845 -0.2635,-0.42634 0.2351,-1.86522 1.1081,-3.19752 1.0135,-1.54685 1.3508,-3.36419 0.9331,-5.02824 -0.3879,-1.54557 -0.2346,-2.60589 0.3768,-2.60589 0.567,0 1.5654,-1.6875 2.2188,-3.75 0.6533,-2.0625 1.8756,-4.29523 2.7162,-4.96163 1.5133,-1.1997 3.2951,-3.92208 5.0975,-7.78837 1.1952,-2.56365 11.9607,-13.5 13.2892,-13.5 1.2474,0 3.8643,-2.5401 3.8643,-3.75094 0,-0.88561 7.5698,-6.24275 8.8397,-6.25589 0.8716,-0.009 5.1603,-6.33559 5.1603,-7.61227 0,-1.09015 3.5531,-5.57674 9,-11.36461 1.925,-2.04549 5.0706,-5.59261 6.9902,-7.8825 1.9196,-2.28988 4.0207,-3.95987 4.669,-3.71107 1.0506,0.40317 5.3408,-2.48591 5.3408,-3.5966 0,-0.98222 8.8187,-9.82612 9.7981,-9.82612 0.5812,0 2.0302,-1.2375 3.2199,-2.75 1.1897,-1.5125 2.4022,-2.56874 2.6945,-2.3472 0.2922,0.22154 2.0909,-0.84157 3.997,-2.36247 2.5439,-2.0299 3.7614,-2.46943 4.578,-1.6528 1.3842,1.38415 4.7125,1.46359 4.7125,0.11247 0,-1.43919 2.7383,-1.23427 3.3405,0.25 0.3286,0.80981 0.7982,0.89785 1.3334,0.25 0.4543,-0.55 1.5721,-1.12271 2.484,-1.27268 1.3766,-0.22643 1.5697,0.38491 1.1379,3.60405 -0.4391,3.27389 -0.2094,3.95795 1.4771,4.39899 1.5395,0.40259 1.8821,1.12333 1.4955,3.14594 -0.2991,1.56454 -0.051,2.6237 0.615,2.6237 0.6141,0 1.1166,1.575 1.1166,3.5 0,1.92593 0.506,3.5 1.125,3.5 0.7198,0 0.9062,1.09425 0.5174,3.03806 -0.4358,2.17903 -0.1884,3.19892 0.875,3.60699 0.8296,0.31833 1.4826,1.82247 1.4826,3.41489 0,1.56527 0.5221,3.99187 1.1603,5.39243 0.9013,1.9782 0.8599,3.45631 -0.1853,6.62351 -0.8132,2.46387 -0.9755,4.34355 -0.4103,4.75058 1.1269,0.81154 1.7518,2.97756 1.6235,5.62745 -0.052,1.07466 0.3803,2.52615 0.9607,3.22556 1.0328,1.2444 1.1334,10.62954 0.3411,31.82053 -0.2057,5.5 -0.468,10.225 -0.5829,10.5 -0.115,0.275 -0.354,1.85 -0.5311,3.5 -0.1772,1.65 -0.5763,4.8 -0.8869,7 -0.3107,2.2 -0.721,6.475 -0.9119,9.5 -0.1909,3.025 -0.6624,9.325 -1.0477,14 -0.3853,4.675 -0.8258,10.3 -0.9788,12.5 -0.1531,2.2 -0.5792,6.25 -0.9468,9 -1.3431,10.04529 -1.82,15.16495 -2.1424,23 -0.4242,10.30669 -0.4254,10.12718 0.1056,16 0.592,6.54667 0.5401,11.35786 -0.1591,14.75 -0.3688,1.78907 -0.1469,2.75 0.635,2.75 0.9167,0 0.9066,0.35586 -0.043,1.5 -0.9932,1.19672 -0.9932,1.80328 0,3 0.9532,1.1486 0.9712,1.82981 0.076,2.90783 -1.2633,1.52214 -1.2418,9.43897 0.03,11.12604 0.4287,0.56863 0.4329,3.58784 0.01,6.70936 -0.5428,3.99938 -0.4291,5.80638 0.3848,6.11872 1.6218,0.62234 1.9181,20.36188 0.4373,29.13805 -0.7234,4.28739 -1.2309,19.98179 -1.3096,40.5 -0.071,18.425 -0.486,34.05183 -0.9229,34.72629 -0.4391,0.67784 -0.1554,2.44562 0.6342,3.95267 1.1871,2.26572 1.2138,3.33479 0.158,6.3272 -1.3745,3.89571 -1.4714,16.68256 -0.1424,18.78764 0.4523,0.71651 0.3528,1.85284 -0.223,2.54667 -0.5719,0.68908 -0.8813,3.9103 -0.6877,7.15827 0.1937,3.24796 -0.049,6.95974 -0.5387,8.24839 -1.2792,3.36457 -1.9495,14.10794 -0.92,14.74424 0.4786,0.29577 0.751,2.89371 0.6054,5.7732 -0.1457,2.87949 0.1668,5.79793 0.6943,6.48543 0.6344,0.82672 0.5113,1.7897 -0.3636,2.84382 -1.3989,1.68563 -1.6292,9.93001 -0.4097,14.66917 0.4424,1.71953 0.2428,3.32706 -0.5287,4.25663 -0.8349,1.006 -1.0266,3.09967 -0.5871,6.4128 0.3723,2.80592 0.2428,5.1724 -0.3013,5.50867 -0.5472,0.33819 -0.8074,5.34133 -0.6104,11.7349 0.1889,6.12995 -0.01,12.08556 -0.4431,13.23469 -0.4326,1.14912 -0.4168,3.07912 0.035,4.28887 0.4518,1.20975 1.0047,5.0857 1.2288,8.61322 0.224,3.52751 0.7042,6.89412 1.0672,7.48135 0.3629,0.58723 0.1933,1.35604 -0.377,1.70847 -1.1228,0.69395 -0.2837,13.2359 1.0034,14.99741 1.2247,1.67607 1.8226,9.06708 0.871,10.76744 -0.532,0.95061 -0.5228,1.82921 0.023,2.16628 0.5046,0.31188 0.6829,3.15438 0.3962,6.31667 -0.2867,3.16228 -0.064,7.40676 0.4956,9.43217 0.5593,2.02541 0.7663,3.93322 0.4599,4.23958 -0.3063,0.30637 -0.5457,6.74921 -0.5318,14.31744 0.014,7.56823 -0.3866,14.55722 -0.89,15.53109 -0.5033,0.97386 -0.6408,2.21461 -0.3055,2.75721 0.7529,1.2182 2.5304,26.13603 2.5304,35.47212 0,0.825 0.015,2.2875 0.033,3.25 0.018,0.9625 -0.1612,4.9 -0.399,8.75 -0.2983,4.83065 -0.01,7.68113 0.9317,9.19785 0.9752,1.57132 1.047,2.3938 0.2519,2.88521 -0.7041,0.43519 -0.902,2.46185 -0.5393,5.52429 0.3532,2.98247 0.1603,5.0919 -0.5032,5.50196 -0.6732,0.41605 -0.877,2.85983 -0.5444,6.52747 0.2924,3.22434 0.1187,6.11762 -0.3859,6.42952 -0.5356,0.331 -0.5528,1.2188 -0.041,2.1329 0.5044,0.9013 0.4923,3.2751 -0.028,5.5931 -1.0821,4.8158 -0.256,15.4811 1.3488,17.4148 0.8356,1.0067 0.8456,1.6755 0.037,2.484 -0.8085,0.8085 -0.7622,1.8068 0.1722,3.7077 0.9326,1.8972 1.1062,5.5782 0.6417,13.6012 -0.3504,6.05 -0.2418,11.8177 0.2412,12.8171 0.5937,1.2284 0.3596,2.6084 -0.7227,4.2601 -1.2462,1.9021 -1.3556,2.9012 -0.494,4.5111 0.6087,1.1374 0.8667,2.6934 0.5734,3.4578 -0.2934,0.7644 -0.063,1.6808 0.5128,2.0364 0.6438,0.3979 0.7666,2.0446 0.3193,4.282 -0.3997,1.9995 -0.8693,6.7855 -1.0435,10.6355 -0.1743,3.85 -0.5365,10.5727 -0.805,14.9394 -0.2685,4.3667 -0.1793,8.4167 0.1983,9 0.8125,1.2552 0.9443,10.5546 0.1497,10.5581 -0.8323,0 -0.5602,12.3364 0.3015,13.6632 0.7991,1.2304 0.8224,2.0885 0.3353,12.3393 -0.1699,3.575 0.1254,7.0531 0.6561,7.7291 0.626,0.7973 0.5726,2.3549 -0.1521,4.4336 -0.6144,1.7624 -0.7742,3.4594 -0.3551,3.7709 0.4191,0.3115 0.8436,2.2693 0.9433,4.3505 0.2056,4.2913 2.319,9.7159 3.7853,9.7159 0.5381,0 -0.068,0.7328 -1.3466,1.6285 -2.1996,1.5407 -2.3014,2.1053 -1.8857,10.4632 0.2417,4.859 0.041,9.2327 -0.4453,9.7193 -0.513,0.513 -0.3887,1.9734 0.2958,3.4757 0.9755,2.141 0.8983,2.873 -0.4445,4.2159 -0.8937,0.8937 -2.0558,1.3586 -2.5825,1.0331 -1.5397,-0.9516 -3.166,3.1725 -2.8496,7.2266 0.2404,3.0788 -0.014,3.6865 -1.4422,3.4475 -1.2938,-0.2165 -1.5636,0.1644 -1.0628,1.5 0.5688,1.5168 0.4339,1.5974 -0.8833,0.5279 -1.6907,-1.3729 -2.8786,-0.5072 -4.1333,3.0123 -0.799,2.2414 -2.6866,2.2765 -2.6866,0.05 z m -972.8662,-15.05 c -0.51512,-0.9625 -0.98951,-2.2 -1.05421,-2.75 -0.1652,-1.4044 -5.07959,-2.6107 -5.07959,-1.2468 0,0.5941 -0.28417,0.796 -0.63148,0.4487 -0.34732,-0.3474 -1.53925,-0.1457 -2.64873,0.4481 -1.10949,0.5937 -4.03774,1.2901 -6.50723,1.5474 -3.75742,0.3916 -4.39289,0.2149 -3.89494,-1.0827 0.32727,-0.8529 0.12427,-1.8416 -0.4511,-2.1972 -0.60802,-0.3758 -0.79491,-2.1691 -0.44626,-4.282 l 0.59988,-3.6355 -1.54201,2.75 c -0.8481,1.5125 -1.97763,2.75 -2.51007,2.75 -1.50907,0 -1.13719,-4.1556 0.53749,-6.0061 1.23332,-1.3628 1.29812,-2.2811 0.35839,-5.0788 -0.63093,-1.8783 -1.75843,-4.1255 -2.50554,-4.9938 -0.74712,-0.8683 -1.3584,-2.7543 -1.3584,-4.191 0,-1.4368 -0.42137,-2.8727 -0.93637,-3.191 -0.515,-0.3183 -0.96615,-1.3573 -1.00254,-2.309 -0.17803,-4.6547 -1.40157,-10.873 -2.37633,-12.0771 -0.81916,-1.0118 -0.66162,-1.5866 0.63351,-2.3114 0.94809,-0.5306 1.48199,-1.356 1.18645,-1.8342 -0.29554,-0.4782 -0.08,-1.1521 0.47897,-1.4975 0.55897,-0.3455 1.01631,-1.3031 1.01631,-2.1281 0,-0.825 -0.41891,-1.2411 -0.9309,-0.9247 -0.512,0.3164 -1.24465,0.068 -1.62812,-0.5528 -0.38346,-0.6205 -0.15022,-1.4662 0.51833,-1.8794 0.86174,-0.5325 1.05429,-2.9013 0.66152,-8.1382 -0.96412,-12.8547 -1.15501,-14.3567 -1.99532,-15.6999 -0.50746,-0.8112 -0.14694,-2.0583 0.9432,-3.2629 1.9261,-2.1283 2.38744,-7.7034 0.72507,-8.7621 -0.57176,-0.3641 -0.96319,-3.4745 -0.86985,-6.912 0.0933,-3.4375 -0.13641,-6.25 -0.51054,-6.25 -1.49339,0 -1.69877,-5.5525 -0.26449,-7.1507 0.81476,-0.9079 1.11059,-1.8799 0.6574,-2.16 -1.16281,-0.7187 -0.65881,-43.7531 0.5643,-48.1828 0.55516,-2.0106 0.79349,-4.2183 0.52962,-4.9059 -0.84033,-2.1899 -1.00053,-22.5672 -0.17957,-22.8408 0.68121,-0.2271 1.08073,-4.8745 0.83901,-9.7598 -0.16004,-3.2343 0.53619,-8.9292 1.16898,-9.562 0.367,-0.367 0.0923,-1.62816 -0.61037,-2.80262 -0.70269,-1.17446 -1.12927,-3.14788 -0.94795,-4.38538 0.18132,-1.2375 0.46826,-3.2625 0.63764,-4.5 0.16938,-1.2375 -0.0868,-2.78373 -0.56939,-3.43608 -0.52435,-0.70886 -0.37936,-2.1166 0.36037,-3.4988 1.45142,-2.712 1.73232,-6.83432 0.82213,-12.06512 -0.43143,-2.4794 -0.27449,-3.75519 0.4632,-3.76531 0.68249,-0.009 0.61401,-0.33362 -0.17637,-0.83504 -0.99132,-0.6289 -1.06117,-1.84748 -0.30008,-5.23469 0.59039,-2.62755 0.62639,-4.78062 0.0889,-5.31816 -0.53748,-0.53753 -0.51412,-1.63002 0.0577,-2.69848 1.51354,-2.82807 2.04394,-11.07488 0.80807,-12.56401 -0.74484,-0.89747 -0.78036,-1.74355 -0.1085,-2.58431 0.54938,-0.6875 1.01097,-5.83507 1.02575,-11.43904 0.0148,-5.60397 0.3011,-10.63275 0.63627,-11.17506 0.33517,-0.54232 0.0663,-2.17809 -0.59758,-3.63506 -0.93667,-2.05576 -0.93952,-3.07731 -0.0127,-4.56136 C 904.25156,904.62432 904.40058,897 903,897 c -1.44672,0 -1.23134,-3.73946 0.25,-4.34054 0.85571,-0.34721 0.91666,-0.76779 0.19321,-1.33333 -0.65186,-0.50958 -0.93644,-4.46623 -0.7427,-10.32613 0.17274,-5.225 0.26196,-11.3 0.19826,-13.5 -0.16638,-5.74619 -0.13898,-6.42519 0.49798,-12.34207 0.32548,-3.02351 0.11705,-6.19788 -0.48023,-7.31392 -0.66102,-1.23511 -0.70647,-2.41501 -0.12167,-3.15793 0.5135,-0.65235 0.83522,-8.38608 0.71492,-17.18608 -0.12029,-8.8 -0.004,-16.38395 0.25857,-16.85321 0.91892,-1.64274 1.15594,-9.57555 0.30187,-10.1034 -0.47424,-0.29309 -0.64576,-4.02276 -0.38114,-8.28815 0.71909,-11.59126 0.67343,-18.22389 -0.16174,-23.49372 -0.6209,-3.91777 -0.46739,-4.84729 0.88628,-5.36674 1.38745,-0.53242 1.56185,-1.84777 1.14313,-8.62133 -0.27176,-4.39619 -0.96848,-8.56464 -1.54827,-9.26324 -1.09784,-1.32282 -0.30639,-12.20805 0.94381,-12.98072 0.36867,-0.22785 0.54669,-1.6777 0.3956,-3.22188 -0.7809,-7.98079 -1.25914,-11.355 -1.71359,-12.09032 -0.27628,-0.44703 -0.10776,-1.4512 0.37449,-2.2315 0.52824,-0.8547 0.45333,-1.92898 -0.18843,-2.70225 -0.76183,-0.91796 -0.71067,-1.71077 0.17965,-2.78354 0.97214,-1.17136 0.98124,-1.81768 0.0415,-2.94997 -0.66186,-0.79749 -1.10465,-2.93499 -0.98398,-4.75 0.12068,-1.81502 -0.0863,-4.00993 -0.45988,-4.87758 -0.37361,-0.86765 -0.28174,-2.66765 0.20415,-4 1.16753,-3.20145 0.52336,-16.82572 -0.87521,-18.5109 -0.60433,-0.72817 -0.7963,-1.81336 -0.4266,-2.41155 0.3697,-0.59819 0.12133,-1.75134 -0.55192,-2.56256 -0.98133,-1.18243 -0.89241,-1.84147 0.44831,-3.32295 1.51853,-1.67796 1.54311,-2.4768 0.26708,-8.68174 -1.19039,-5.7885 -1.19565,-7.04343 -0.0344,-8.20467 1.62479,-1.6248 1.81343,-6.38558 0.31249,-7.88652 -0.58214,-0.58214 -1.27572,-5.73464 -1.54129,-11.45 -0.47851,-10.29821 -0.86512,-14.92674 -1.32738,-15.89156 -0.41415,-0.8644 -0.85401,-5.17892 -1.55473,-15.25 -0.51743,-7.43675 -0.38534,-9.75 0.55672,-9.75 0.86099,0 0.76627,-0.53006 -0.31272,-1.75 -2.15692,-2.43866 -2.93376,-16.25 -0.91401,-16.25 1.097,0 1.24947,-0.83974 0.68086,-3.75 -1.00666,-5.15235 -0.68683,-15.19003 0.58657,-18.40927 0.74624,-1.88656 0.73191,-3.25718 -0.0493,-4.71693 -0.64233,-1.2002 -0.86435,-4.28039 -0.5328,-7.39164 0.31263,-2.9337 0.0858,-6.60332 -0.50402,-8.15471 -0.58983,-1.5514 -0.69765,-3.32849 -0.23958,-3.94909 0.71483,-0.96847 0.89602,-7.15321 0.2308,-7.87836 -0.85733,-0.93458 -0.4908,-8.01609 0.43326,-8.37069 1.31808,-0.5058 1.5409,-21.11535 0.24984,-23.10864 -0.43794,-0.67614 -0.27352,-2.20607 0.36538,-3.39986 1.70588,-3.18747 1.41503,-11.03385 -0.54986,-14.83352 -1.33354,-2.5788 -1.46848,-3.77643 -0.61107,-5.42347 0.6702,-1.28743 1.02063,-7.19614 0.89635,-15.11382 -0.11222,-7.15 0.14659,-14.4625 0.57515,-16.25 0.62906,-2.62377 0.47486,-3.25 -0.80025,-3.25 -1.99749,0 -2.02832,-1.38259 -0.0671,-3.01023 1.13791,-0.94438 1.23568,-1.58848 0.39489,-2.60156 -0.81922,-0.9871 -0.82251,-2.19245 -0.0123,-4.51654 1.5925,-4.56824 1.38887,-11.39128 -0.38388,-12.86253 -0.81894,-0.67967 -1.24857,-1.62476 -0.95472,-2.10022 0.91211,-1.47583 1.2553,-12.35349 0.42304,-13.40892 -1.76068,-2.23281 -1.37426,-7.13663 0.80334,-10.19479 2.73881,-3.84631 2.80239,-6.32461 0.23809,-9.28128 -1.08859,-1.25514 -1.69484,-2.74227 -1.34723,-3.30471 0.34761,-0.56245 -0.16703,-1.60691 -1.14365,-2.32103 -1.63174,-1.19315 -1.5428,-1.35858 1.09723,-2.04086 1.58009,-0.40836 3.54789,-0.80384 4.37289,-0.87885 0.825,-0.075 2.2875,-0.21335 3.25,-0.30743 0.9625,-0.0941 1.75,-0.81676 1.75,-1.60595 0,-0.7892 0.52479,-2.7017 1.16621,-4.25 0.64141,-1.54831 1.20391,-3.1526 1.25,-3.5651 0.0461,-0.4125 0.30879,-0.77905 0.58379,-0.81455 1.056,-0.13633 4.55737,1.50932 5.77894,2.71611 0.70342,0.6949 1.94092,1.00944 2.75,0.69896 0.80908,-0.31047 1.47106,-0.0306 1.47106,0.62195 0,0.78938 0.97212,0.97293 2.9048,0.54844 1.63319,-0.35871 3.18384,-0.18651 3.54222,0.39337 0.35058,0.56725 2.40028,1.50606 4.55488,2.08623 2.15459,0.58017 5.89926,2.56761 8.32147,4.41653 2.42221,1.84891 5.34234,3.65947 6.48917,4.02346 1.14684,0.36399 2.36365,1.53926 2.70403,2.61171 0.34038,1.07245 1.52686,2.43585 2.63662,3.02977 5.88009,3.14693 12.2428,10.05782 13.90945,15.10782 0.73345,2.22237 2.1444,4.54706 3.13545,5.16598 0.99105,0.61892 1.80191,1.52031 1.80191,2.00308 0,1.57355 6.33167,6.4511 7.69515,5.92788 0.83693,-0.32116 1.12656,0.0143 0.78373,0.9077 -0.54789,1.42778 4.59828,6.80556 6.51246,6.80556 0.55476,0 1.00866,0.48214 1.00866,1.07143 0,2.41303 6.28523,6.48836 8.19061,5.31077 0.76634,-0.47363 0.93361,-0.14829 0.50201,0.97644 -0.39606,1.03212 0.12013,2.45411 1.33006,3.66404 1.08753,1.08753 1.97732,2.397 1.97732,2.90993 0,0.51294 0.90653,1.22034 2.01452,1.572 1.10802,0.35166 1.80962,0.97102 1.55912,1.37636 -1.07225,1.73481 8.5784,8.76116 10.4471,7.60626 0.5386,-0.3329 0.9793,0.32129 0.9793,1.45375 0,1.28847 0.6549,2.06475 1.75,2.07433 1.3756,0.012 1.457,0.20092 0.3807,0.88276 -1.1461,0.72601 -1.0922,1.70168 0.3302,5.98415 0.9347,2.81419 2.6759,5.83862 3.8693,6.72095 1.4666,1.08436 1.7647,1.75969 0.9198,2.08388 -1.8662,0.71604 -1.5109,3.70606 0.75,6.31295 2.7287,3.14616 2.5183,4 -0.9856,4 -4.0395,0 -12.0144,-2.20003 -12.0144,-3.31439 0,-0.49477 -0.6606,-0.6461 -1.468,-0.33627 -0.8074,0.30982 -1.7176,0.15944 -2.0226,-0.33417 -0.3051,-0.49362 -2.682,-1.93604 -5.28209,-3.20539 -2.60004,-1.26935 -5.09251,-2.88029 -5.53881,-3.57987 -0.4463,-0.69959 -1.24495,-1.00406 -1.77478,-0.67661 -0.52982,0.32745 -0.89887,0.22441 -0.82012,-0.22897 C 990.48703,447.05977 989.80959,446 987.96862,446 c -1.11727,0 -2.29041,-0.675 -2.60699,-1.5 -0.31659,-0.825 -1.0205,-1.5 -1.56425,-1.5 -0.54375,0 -2.25887,-0.90448 -3.81137,-2.00996 l -2.82272,-2.00996 -0.52575,2.75996 c -0.62123,3.26125 -0.21831,11.01252 0.6158,11.84663 0.32084,0.32085 0.11508,1.92665 -0.45726,3.56845 -0.57234,1.64181 -0.80899,4.71195 -0.5259,6.82255 0.29121,2.17115 0.0355,4.31665 -0.58891,4.94106 -1.33833,1.33833 -1.69262,14.10433 -0.43758,15.76735 0.5061,0.67062 0.52321,1.97438 0.0394,3 -0.89147,1.88968 -0.8665,12.44868 0.0427,18.05092 0.28893,1.78036 0.16749,3.45817 -0.26987,3.72847 -0.43736,0.2703 -0.44402,2.41192 -0.0148,4.75915 0.42922,2.34722 0.48307,4.49441 0.11967,4.77153 -1.03862,0.79201 -1.29244,11.80442 -0.2864,12.42619 0.49622,0.30668 0.75705,3.35905 0.57961,6.78303 -0.23668,4.56719 -0.7996,6.5742 -2.11333,7.53483 -1.49249,1.09133 -1.5867,1.63612 -0.56567,3.27104 1.31921,2.11239 1.66643,8.21404 0.53199,9.34849 -0.99126,0.99126 -1.68657,11.68053 -1.4239,21.89027 0.15961,6.20368 -0.1197,8.75 -0.9598,8.75 -0.79131,0 -0.99987,1.14038 -0.62784,3.43291 0.50103,3.08751 -1.13623,13.57723 -2.75629,17.65913 -0.46618,1.17461 0.23245,1.85176 2.66452,2.5826 1.813,0.54481 3.21378,1.42617 3.11283,1.95857 -0.10094,0.53241 -0.37177,3.31607 -0.60184,6.18591 -0.23007,2.86984 -0.68125,5.48084 -1.00262,5.80221 -0.32137,0.32137 -0.14546,1.73859 0.39092,3.14937 2.34946,6.17956 1.86984,17.2293 -0.74785,17.2293 -3.17163,0 -2.40944,5.80278 1.24179,9.454 1.6432,1.6432 1.64895,1.82893 0.0837,2.70487 -0.92433,0.51728 -1.6806,1.73214 -1.6806,2.69969 0,0.96755 -0.63779,2.63141 -1.41732,3.69748 -0.99231,1.35707 -1.10847,2.31042 -0.38737,3.17929 1.033,1.2447 0.92594,1.33015 -3.19531,2.55031 -2.25102,0.66646 -5.23923,-1.21983 -4.59442,-2.90019 0.30839,-0.80364 -0.10671,-1.71727 -0.92244,-2.03029 C 959.66741,666.04213 959,665.15917 959,664.39301 959,663.62686 958.58032,663 958.06739,663 c -1.32364,0 -2.34532,3.74128 -1.42731,5.22665 1.08435,1.75452 0.46016,7.2892 -1.29611,11.49253 -0.81922,1.96068 -1.2301,4.59838 -0.91306,5.86156 0.31704,1.26318 0.12478,2.57583 -0.42724,2.91699 -1.58234,0.97794 -1.17651,2.31264 0.90395,2.97295 3.23656,1.02724 3.44219,3.67526 0.46946,6.04563 -1.93257,1.54098 -2.44075,2.55489 -1.78839,3.56818 0.50122,0.77853 0.97554,3.21551 1.05405,5.41551 0.19565,5.48283 1.33053,9.79183 2.91493,11.06767 1.97728,1.59221 3.14458,16.38028 1.3791,17.47141 -1.11822,0.6911 -1.06993,1.15776 0.27424,2.64987 1.15385,1.28085 1.66213,3.86035 1.73617,8.81105 0.1436,9.60123 0.17854,10.96604 0.49286,19.25 0.15129,3.9875 -0.11082,7.25 -0.58248,7.25 -1.196,0 -1.07743,3.74608 0.14244,4.5 1.5248,0.94238 1.19172,4.29333 -0.52208,5.25242 -1.35751,0.7597 -1.34959,1.19754 0.0732,4.04969 1.71392,3.43562 3.86439,4.16332 4.83426,1.63588 0.32967,-0.85911 0.65309,-5.23704 0.71871,-9.72874 0.13584,-9.29827 1.29905,-13.70607 3.13303,-11.87209 1.75784,1.75784 2.71551,1.41752 3.76284,-1.33716 0.52277,-1.375 1.52414,-2.49311 2.22525,-2.48469 0.96554,0.0116 0.98435,0.19993 0.0775,0.7764 -0.78959,0.50194 -0.87992,1.26281 -0.26532,2.23468 1.12578,1.78019 1.2492,4.01887 0.21253,3.85519 -2.09956,-0.33151 -3.25,0.27926 -3.25,1.72541 0,1.10877 0.53311,1.40242 1.71952,0.94715 0.94573,-0.36292 1.39964,-0.33997 1.00868,0.051 -0.39097,0.39096 -0.23353,1.28598 0.34987,1.98893 C 976.25236,776.009 974.69222,780 972.96482,780 972.43417,780 972,780.675 972,781.5 c 0,0.825 0.41968,1.5 0.93261,1.5 1.67722,0 2.27547,4.08344 1.03648,7.07462 -0.96358,2.3263 -0.94986,3.24362 0.0668,4.46867 0.83378,1.00463 1.61995,1.20084 2.25741,0.56338 0.63746,-0.63746 1.43014,-0.52605 2.2761,0.3199 1.06399,1.064 0.86914,2.1451 -1.08087,5.99685 -1.30838,2.58438 -2.1304,5.34635 -1.82672,6.13772 0.6375,1.66131 2.92726,1.91273 3.84824,0.42255 0.34546,-0.55897 1.11655,-0.71444 1.71353,-0.34549 0.62317,0.38514 0.79973,0.20858 0.41459,-0.41459 -0.36895,-0.59698 -0.24563,-1.3482 0.27406,-1.66938 0.55028,-0.34009 0.94488,1.7582 0.94488,5.02434 0,5.01461 -0.1479,5.41317 -1.39713,3.76488 -1.26322,-1.66677 -1.37454,-1.46008 -1.16146,2.15655 0.12962,2.2 0.60381,4 1.05376,4 1.06434,0 3.7856,6.46784 3.15235,7.49246 -0.26712,0.43221 -0.072,2.97322 0.43348,5.64669 0.56351,2.98003 0.55983,5.22844 -0.009,5.81085 -0.51076,0.5225 -0.92865,2.16787 -0.92865,3.65638 0,2.21405 -0.36383,2.61124 -2,2.18337 -1.11819,-0.29241 -2,-0.0307 -2,0.59362 0,0.61415 0.85787,1.11663 1.90638,1.11663 1.40347,0 1.77067,0.51897 1.39194,1.96724 -0.28295,1.08198 -1.11407,2.46488 -1.84694,3.07311 -0.73288,0.60823 -1.1088,1.68884 -0.83538,2.40134 0.27849,0.72574 -0.39952,1.52994 -1.54168,1.82862 -1.81322,0.47417 -1.9193,0.87595 -0.95873,3.63142 1.13998,3.27015 3.55388,4.12318 4.52278,1.59827 1.59284,-4.15088 2.39925,-0.48226 2.14318,9.75 -0.2625,10.48897 -0.41684,11.25009 -2.28155,11.25132 -1.10974,7.3e-4 -2,0.66843 -2,1.5 0,0.82805 0.88898,1.49948 1.98665,1.50048 2.26153,0.002 3.22468,2.93617 1.6046,4.88825 -0.59064,0.71168 -0.76478,1.60309 -0.38696,1.9809 0.67492,0.67493 1.30779,2.91311 1.52098,5.37905 0.0594,0.6875 0.41586,1.25 0.79205,1.25 0.3762,0 0.32929,2.24381 -0.10423,4.98625 -0.76397,4.83286 -0.45338,12.73609 0.63533,16.16631 0.29311,0.92352 0.0528,1.97586 -0.534,2.33853 -0.58682,0.36267 -1.0506,2.08804 -1.03064,3.83416 0.02,1.74611 0.027,3.84975 0.0156,4.67475 -0.0114,0.825 0.14507,2.85 0.34768,4.5 1.79757,14.63887 1.8463,18.21182 0.25667,18.82182 -1.94465,0.74623 -2.19121,6.69061 -0.35373,8.52837 0.78713,0.78725 1.26885,4.28658 1.30092,9.45 0.028,4.5099 0.55235,9.11143 1.16521,10.22563 0.71847,1.30621 0.7825,2.61869 0.18026,3.69483 -1.61173,2.88 -1.27548,19.87955 0.41445,20.95315 0.72966,0.4635 0.67832,1.1343 -0.16457,2.15 -0.92106,1.1098 -1.07361,6.1912 -0.61464,20.4732 0.44415,13.8211 0.29714,19.1908 -0.53958,19.7079 -0.76977,0.4758 -0.92757,2.3285 -0.47722,5.6029 0.46986,3.4163 0.32505,4.8922 -0.48001,4.8922 -0.63407,0 -0.88703,0.4301 -0.56213,0.9558 0.3249,0.5257 0.75769,11.8069 0.96177,25.0694 0.20407,13.2625 0.64138,24.384 0.9718,24.7144 0.33041,0.3304 -0.0708,1.6257 -0.89164,2.8784 -0.82081,1.2527 -1.10774,2.5154 -0.63761,2.806 0.47012,0.2905 0.63766,1.664 0.3723,3.0521 -0.62616,3.2756 0.2368,3.1823 4.40347,-0.4761 1.87925,-1.65 3.8989,-3 4.48811,-3 0.58922,0 2.77582,-1.35 4.85915,-3 2.0833,-1.65 4.0644,-3 4.4026,-3 0.3381,0 2.4783,-1.35 4.7561,-3 2.2778,-1.65 4.7489,-3 5.4913,-3 0.7425,0 1.35,-0.4988 1.35,-1.1084 0,-0.6854 0.962,-0.867 2.5205,-0.4758 1.3863,0.3479 3.4656,0.1268 4.6207,-0.4914 1.1551,-0.6181 1.8608,-0.7366 1.5682,-0.2631 -0.2926,0.4734 0.1208,1.7536 0.9188,2.8449 1.2444,1.7018 1.5851,1.7713 2.395,0.4889 0.5194,-0.8223 1.0866,-1.9001 1.2605,-2.3951 0.174,-0.495 0.8895,-0.7089 1.59,-0.4754 0.8438,0.2812 0.2431,1.503 -1.7801,3.62 -1.6796,1.7576 -2.8119,3.8259 -2.5162,4.5964 0.2956,0.7705 -0.1633,1.6699 -1.0199,1.9986 -0.8566,0.3287 -1.5575,1.2868 -1.5575,2.129 0,0.8876 -0.8802,1.5314 -2.0936,1.5314 -1.2526,0 -2.3037,0.8034 -2.6167,2 -0.2876,1.1 -0.9089,2 -1.3807,2 -1.5093,0 -4.2928,6.4033 -4.0209,9.25 0.1735,1.8164 -0.213,2.75 -1.1384,2.75 -1.899,0 -5.7497,4.2289 -5.7497,6.3145 0,0.927 -0.3843,1.6855 -0.854,1.6855 -1.4428,0 -6.29166,4.9554 -5.7331,5.8591 0.289,0.4676 -0.58571,1.894 -1.94376,3.1699 -1.35805,1.2758 -2.46918,1.9589 -2.46918,1.518 0,-1.6159 -9.50369,8.0071 -9.61511,9.7358 -0.13457,2.0877 -12.86825,14.7172 -14.83867,14.7172 -0.73647,0 -2.68424,1.5321 -4.32838,3.4047 -1.64414,1.8725 -3.82825,3.5674 -4.85359,3.7663 -1.02534,0.199 -1.89579,1.0294 -1.93435,1.8454 -0.0385,0.816 -1.91412,3.3762 -4.16793,5.6894 -2.83491,2.9097 -3.94085,4.8062 -3.58848,6.1536 0.35635,1.3627 -0.11887,2.1472 -1.58207,2.6116 -1.15028,0.3651 -2.09142,1.0531 -2.09142,1.529 0,0.4759 -0.80264,1.12 -1.78363,1.4313 -0.981,0.3114 -2.59251,1.9354 -3.58114,3.6091 -1.34672,2.2798 -2.2863,2.8877 -3.74665,2.4242 -1.33978,-0.4252 -3.04478,0.3434 -5.45366,2.4584 -4.10209,3.6017 -4.08592,3.5976 -5.30112,1.327 z M 971,981 c 0,-1.1 -0.63287,-2 -1.40638,-2 -0.91405,0 -1.22329,0.70014 -0.88337,2 0.28766,1.1 0.92053,2 1.40638,2 0.48585,0 0.88337,-0.9 0.88337,-2 z m 1.7299,-38.29987 c 0.12644,-5.61007 0.64614,-11.90797 1.15488,-13.99533 0.50874,-2.08736 0.81597,-4.53796 0.68273,-5.44579 -0.38551,-2.62668 -2.27097,-2.57664 -2.93723,0.0779 -0.33462,1.33324 -1.51333,2.66071 -2.61934,2.94994 -1.53773,0.40212 -2.01094,1.36044 -2.01094,4.07244 0,1.95061 0.51616,4.67941 1.14702,6.064 0.8804,1.93226 0.85861,2.86496 -0.0937,4.01247 -1.35824,1.63658 -0.58248,9.1191 1.05004,10.12806 0.51112,0.31588 0.67041,0.99324 0.35397,1.50524 C 969.14086,952.58109 969.38508,953 970,953 c 0.61492,0 0.80046,0.5625 0.41231,1.25 -0.52027,0.92153 -0.3387,0.90843 0.69099,-0.0499 0.98595,-0.91759 1.46431,-4.29957 1.6266,-11.5 z m -0.029,-28.49409 c 1.14003,-0.72467 1.14201,-22.43425 0.004,-40.70604 -0.20558,-3.3 0.007,-6.50279 0.47314,-7.11732 0.50881,-0.67125 0.21273,-1.64366 -0.74161,-2.4357 -1.31657,-1.09265 -1.73087,-1.08809 -2.41982,0.0266 -0.45719,0.73976 -0.59842,1.95179 -0.31383,2.69342 0.28459,0.74162 -0.20705,2.45409 -1.09252,3.8055 -1.92397,2.93635 -2.02453,4.91086 -0.39946,7.8432 0.66578,1.20134 1.27058,4.38224 1.34402,7.06867 0.10859,3.97212 -0.21089,4.97448 -1.71049,5.36663 -2.04537,0.53488 -2.40329,1.78528 -0.79546,2.77897 0.6543,0.40438 0.70086,1.08457 0.12385,1.80902 -0.52606,0.66046 -0.60038,3.5321 -0.17241,6.66097 0.41377,3.025 0.39793,5.95 -0.0352,6.5 -0.43312,0.55 -0.54993,2.2375 -0.25957,3.75 0.53603,2.79227 3.27456,3.6857 5.99563,1.95604 z M 981.15,867.5 c 0,-0.5225 -0.48375,-1.11125 -1.075,-1.30833 -0.59125,-0.19709 -1.075,0.39166 -1.075,1.30833 0,0.91667 0.48375,1.50542 1.075,1.30833 0.59125,-0.19708 1.075,-0.78583 1.075,-1.30833 z M 982,828 c 0,-0.55 -0.45,-1 -1,-1 -0.55,0 -1,0.45 -1,1 0,0.55 0.45,1 1,1 0.55,0 1,-0.45 1,-1 z m -14.14,-10.0572 c -0.19762,-2.73698 0.18425,-4.35405 1.17353,-4.96948 1.18756,-0.73879 1.23577,-1.28463 0.25348,-2.86998 -0.66714,-1.07672 -1.32219,-4.91545 -1.45567,-8.53051 C 967.6055,795.45611 967.42945,795 965.29433,795 c -2.38264,0 -3.17085,2.34025 -1.19871,3.55909 0.61256,0.37859 0.90225,2.27843 0.65705,4.30902 -0.24121,1.99754 -0.0684,4.94686 0.38395,6.55405 0.45238,1.60718 0.44438,3.40718 -0.0178,4 -0.46217,0.59281 -0.88927,2.76534 -0.94912,4.82784 -0.0913,3.1469 0.22023,3.75 1.9372,3.75 1.7733,0 2.00697,-0.5408 1.75308,-4.0572 z M 959.75798,659.75 c 1.42039,-2.91609 2.24591,-11.62956 1.16508,-12.29755 -0.45915,-0.28377 -1.97967,0.47949 -3.37894,1.69614 -2.79077,2.42654 -3.28749,6.12579 -1.3836,10.30436 1.42786,3.13383 2.18525,3.19637 3.59746,0.29705 z M 1787.5,1108 c -0.3399,-0.55 -0.1415,-1 0.441,-1 0.5824,0 1.059,0.45 1.059,1 0,0.55 -0.1984,1 -0.441,1 -0.2425,0 -0.7191,-0.45 -1.059,-1 z m -3.7708,-3.6042 c -0.4011,-0.401 -0.7292,-1.4191 -0.7292,-2.2625 0,-1.1256 0.2958,-1.2375 1.1125,-0.4208 0.6119,0.6119 0.94,1.63 0.7292,2.2625 -0.2109,0.6325 -0.7115,0.8219 -1.1125,0.4208 z M 1400.5347,871.20139 c -0.3857,-0.38577 -1.0014,-0.72025 -1.368,-0.74331 -0.3667,-0.0231 -2.0721,-0.7926 -3.7899,-1.71011 -1.7178,-0.91751 -3.3753,-1.41609 -3.6835,-1.10795 -0.3081,0.30814 -1.1527,0.17769 -1.8768,-0.28988 -0.7241,-0.46758 -1.9915,-0.89601 -2.8165,-0.95208 -0.825,-0.0561 -2.2875,-0.16857 -3.25,-0.25 -0.9625,-0.0814 -1.7855,-0.93556 -1.8289,-1.89806 -0.047,-1.04544 -0.2821,-1.24674 -0.5834,-0.5 -0.8069,1.9997 -3.6447,1.41897 -6.1927,-1.26728 -1.2952,-1.36549 -3.0148,-2.48272 -3.8214,-2.48272 -0.8065,0 -2.1415,-0.675 -2.9665,-1.5 -0.825,-0.825 -2.4956,-1.5 -3.7126,-1.5 -1.217,0 -3.6564,-1.4625 -5.421,-3.25 -1.7646,-1.7875 -4.8513,-4.91601 -6.8592,-6.95224 -2.008,-2.03623 -3.9239,-3.67507 -4.2576,-3.64185 -2.0034,0.19941 -4.9972,-1.6291 -5.44,-3.32258 -0.2851,-1.08996 -1.4348,-2.22143 -2.555,-2.51437 -1.1444,-0.29926 -2.9854,-2.4923 -4.202,-5.00544 -1.1909,-2.46005 -3.2327,-4.95921 -4.5375,-5.55369 -1.3902,-0.63343 -2.3748,-1.94582 -2.3784,-3.17035 0,-1.14921 -0.7288,-3.43948 -1.6121,-5.08948 -0.8833,-1.65 -1.5856,-4.2375 -1.5607,-5.75 0.025,-1.5125 -0.4012,-2.75 -0.9469,-2.75 -0.5457,0 -0.714,0.45 -0.3741,1 0.3399,0.55 0.1415,1 -0.441,1 -0.5824,0 -1.0789,-1.4625 -1.1031,-3.25 -0.049,-3.62009 -2.139,-12.26641 -3.228,-13.35543 -0.3863,-0.38628 -0.426,-2.43064 -0.088,-4.54303 0.3442,-2.1524 0.1574,-4.39256 -0.425,-5.09612 -1.1185,-1.3513 -0.9239,-11.12045 0.2794,-14.0221 0.403,-0.97167 0.5001,-2.98354 0.2157,-4.47082 -0.2843,-1.48729 0.3157,-5.37924 1.3333,-8.64878 1.3114,-4.2135 1.5643,-6.47887 0.8684,-7.77918 -0.6529,-1.21993 -0.6414,-1.83454 0.034,-1.83454 0.5588,0 1.3131,-1.2375 1.6761,-2.75 0.363,-1.5125 1.459,-3.52004 2.4356,-4.46119 1.0184,-0.98146 1.5589,-2.53953 1.2676,-3.6536 -0.3548,-1.35671 0.1227,-2.14255 1.5835,-2.60619 1.1503,-0.36509 2.0914,-1.50283 2.0914,-2.52831 0,-1.02549 1.3417,-2.81993 2.9817,-3.98765 1.6399,-1.16772 2.8774,-2.52512 2.75,-3.01646 -0.2828,-1.09038 3.4902,-6.98971 4.4728,-6.99372 0.3875,-0.002 1.794,-1.01538 3.1255,-2.25288 6.1715,-5.7357 7.5796,-6.75 9.3711,-6.75 1.0556,0 3.3051,-1.35491 4.9989,-3.01091 1.7767,-1.73708 3.7019,-2.77211 4.5505,-2.44648 0.9774,0.37509 2.0058,-0.56294 3.0656,-2.79624 2.0029,-4.22084 5.7751,-6.25672 12.3625,-6.67206 0.6482,-0.0409 1.7856,-0.68139 2.5276,-1.42337 1.7455,-1.74546 8.7656,-4.12663 11.1231,-3.77286 1.0062,0.15098 3.3405,-0.44259 5.1875,-1.31905 1.9488,-0.92476 4.8485,-1.40872 6.9092,-1.15313 1.953,0.24224 3.8084,0.0238 4.1232,-0.48544 0.348,-0.56319 1.282,-0.54598 2.3842,0.0439 0.9967,0.53339 2.7641,0.78646 3.9276,0.56239 1.1635,-0.22408 2.8083,0.28542 3.6551,1.13222 1.2222,1.22219 1.8406,1.2899 2.999,0.32844 0.8175,-0.67839 2.2349,-0.89146 3.2222,-0.48438 0.9695,0.39975 3.1846,0.85952 4.9225,1.02172 1.7379,0.1622 4.1004,1.23548 5.25,2.38507 1.3103,1.31031 3.3741,2.09016 5.5312,2.09016 1.8925,0 3.6883,0.40015 3.9905,0.88922 0.3023,0.48907 1.7914,1.19617 3.3091,1.57132 1.5176,0.37516 3.97,1.83346 5.4497,3.24068 1.6225,1.54307 3.3184,2.31757 4.2727,1.95136 0.9086,-0.34869 2.4242,0.23465 3.5597,1.3701 1.0875,1.08753 2.3755,1.97732 2.8623,1.97732 0.4867,0 1.6202,1.12216 2.5189,2.49369 0.8987,1.37153 2.1879,2.38403 2.865,2.25 0.6953,-0.13762 1.241,0.79828 1.2539,2.15019 0.015,1.54939 0.8085,2.68453 2.25,3.21778 1.225,0.45314 2.2272,1.25807 2.2272,1.78873 0,0.53066 0.8553,1.23628 1.9006,1.56806 1.0453,0.33177 2.1885,1.75045 2.5404,3.15262 0.352,1.40216 1.7467,3.57514 3.0994,4.82883 1.3528,1.25369 2.4596,2.93419 2.4596,3.73444 0,0.80024 1.125,2.43316 2.5,3.62871 1.375,1.19555 2.5,3.02422 2.5,4.06371 0,1.04897 0.89,2.12271 2,2.41299 1.3194,0.34504 2,1.36401 2,2.99451 0,1.35932 0.7251,4.20684 1.6113,6.32782 0.8862,2.12098 1.7725,6.13822 1.9696,8.9272 0.197,2.78899 1.018,6.64975 1.8243,8.57947 1.1231,2.68815 1.2372,4.5267 0.4877,7.86249 -0.5381,2.39464 -0.7484,4.95299 -0.4674,5.68521 0.281,0.73223 0.137,2.34199 -0.3199,3.57725 -0.4779,1.29182 -0.4002,3.48135 0.1829,5.15403 0.8331,2.38983 0.698,3.139 -0.7583,4.20384 -1.3821,1.01061 -1.6248,2.08044 -1.1031,4.86151 0.4661,2.48458 0.1563,4.54682 -1.0219,6.80134 -3.0458,5.82862 -3.4052,6.69111 -3.4052,8.17232 0,0.80513 0.7225,1.86824 1.6057,2.36245 1.4019,0.78459 1.2751,1.22912 -1,3.50424 -1.4332,1.43311 -2.6057,3.56824 -2.6057,4.74474 0,1.21098 -0.7733,2.34129 -1.7823,2.60516 -0.9803,0.25634 -2.368,1.78921 -3.0838,3.40638 -0.7159,1.61716 -1.9501,2.94029 -2.7427,2.94029 -0.8051,0 -1.7092,1.33984 -2.0483,3.03552 -0.3339,1.66953 -1.3959,3.45766 -2.36,3.97362 -0.9641,0.51596 -2.0382,2.07497 -2.3869,3.46448 -0.4373,1.74211 -1.3267,2.53624 -2.8651,2.55813 -1.227,0.0175 -3.7315,1.54039 -5.5655,3.38427 -1.9182,1.92857 -4.0419,3.17492 -5,2.93439 -1.0679,-0.26814 -2.2765,0.67022 -3.3689,2.61573 -1.3039,2.32215 -2.4049,3.03386 -4.6933,3.03386 -1.9139,0 -3.5249,0.76396 -4.4768,2.12306 -2.2418,3.20055 -5.7542,4.72427 -7.9319,3.44093 -1.4125,-0.83239 -2.0219,-0.68307 -2.7997,0.68601 -0.5468,0.9625 -1.6093,1.75 -2.3611,1.75 -0.7518,0 -2.1919,1.06913 -3.2003,2.37584 -2.5202,3.2659 -7.2347,3.96872 -11.621,1.73244 -3.2404,-1.65206 -3.7283,-1.66924 -6.1239,-0.21565 -2.174,1.31908 -2.9444,1.36622 -4.6741,0.28598 -1.2977,-0.81039 -2.5087,-0.95109 -3.2428,-0.37673 -1.631,1.27611 -7.2874,2.24899 -8.1369,1.39951 z M 1435,827 c 0,-0.55 -0.4766,-1 -1.059,-1 -0.5825,0 -0.7809,0.45 -0.441,1 0.3399,0.55 0.8165,1 1.059,1 0.2426,0 0.441,-0.45 0.441,-1 z m -451.41705,31.13421 c -0.43077,-0.697 -0.51316,-1.53733 -0.18309,-1.86741 0.89497,-0.89496 1.87077,0.4213 1.38739,1.87145 -0.33872,1.01617 -0.57427,1.01538 -1.2043,-0.004 z m -16.95561,-96.39546 c -0.33001,-1.23131 -0.60618,-3.47625 -0.61369,-4.98875 -0.008,-1.5125 -0.49122,-2.75 -1.07492,-2.75 -0.69106,0 -0.82596,-1.56923 -0.3867,-4.49836 0.58896,-3.92749 0.93286,-17.11343 0.48254,-18.50164 -0.3859,-1.18959 -1.03209,-10.98581 -1.08603,-16.46391 -0.0323,-3.28016 -0.52833,-6.52977 -1.1023,-7.22136 -1.27093,-1.53138 -2.21829,-14.00153 -1.23223,-16.21993 0.38988,-0.87714 0.74873,-5.04363 0.79743,-9.25887 0.0487,-4.21524 0.40376,-7.98043 0.789,-8.3671 1.20705,-1.21153 6.5433,3.88802 7.35754,7.03117 1.14793,4.43131 1.17496,5.79817 0.15578,7.87717 -0.62279,1.2704 -0.52913,2.1189 0.28976,2.625 0.79723,0.49272 0.85758,0.96564 0.17692,1.38631 -0.65518,0.40493 -0.72119,1.72605 -0.18044,3.61152 0.52781,1.84037 0.47377,3.20719 -0.14185,3.58767 -0.54697,0.33805 -0.75294,1.24411 -0.45771,2.01348 0.29524,0.76937 0.0312,1.39885 -0.58681,1.39885 -0.61798,0 -0.29163,0.91932 0.72522,2.04293 1.80442,1.99386 1.79855,2.05608 -0.24478,2.59042 -2.39262,0.62568 -3.40954,4.82222 -2.05552,8.48249 1.19583,3.23262 2.92171,4.04725 4.37213,2.06368 1.63183,-2.23165 2.53558,-1.13005 2.43476,2.96778 -0.0454,1.84398 -0.0792,4.3652 -0.0752,5.6027 0.004,1.2375 -0.52763,2.25 -1.18147,2.25 -0.91218,0 -0.90957,0.27923 0.0112,1.2 1.72567,1.72567 1.47745,3.58085 -0.55,4.11067 -1.66667,0.43555 -1.66667,0.46285 0,0.57333 0.9625,0.0638 1.75,0.566 1.75,1.116 0,0.55 0.675,1 1.5,1 0.83333,0 1.5,0.88889 1.5,2 0,1.1 -0.45,2 -1,2 -0.55,0 -1,0.86786 -1,1.92857 0,1.06072 -0.64607,2.57464 -1.43571,3.36429 -1.05501,1.055 -1.14035,1.73108 -0.32183,2.5496 0.81852,0.81852 0.54112,1.61065 -1.0461,2.98724 -1.18799,1.03034 -1.90354,2.12978 -1.59012,2.44321 0.31343,0.31343 -0.42275,1.91246 -1.63596,3.55341 -1.2132,1.64095 -1.92049,3.44523 -1.57174,4.00951 0.34875,0.56429 0.2279,1.27701 -0.26854,1.58382 -0.49644,0.30682 -1.17264,-0.44958 -1.50266,-1.6809 z m 6.95012,-22.57715 c -2.13533,-0.41672 -3.00352,0.34001 -2.08857,1.82043 0.49468,0.8004 1.1313,0.74862 2.25586,-0.18347 1.41152,-1.16994 1.39495,-1.33208 -0.16729,-1.63696 z M 1811.9899,449 c 1.6684,-3.25601 1.7101,-3.29446 2.3864,-2.20018 0.3171,0.51309 -0.3783,1.78053 -1.5454,2.81653 -2.1164,1.87872 -2.1186,1.87711 -0.841,-0.61635 z M 1072,395.99515 c -2.475,-1.64262 -5.7671,-2.98851 -7.3157,-2.99087 -2.6257,-0.004 -5.6122,-1.14575 -8.1213,-3.10477 -0.5847,-0.45647 -2.6974,-2.1956 -4.695,-3.86473 -1.9976,-1.66913 -3.9423,-3.03478 -4.3214,-3.03478 -0.3792,0 -1.3645,-0.675 -2.1895,-1.5 -0.825,-0.825 -2.2553,-1.50129 -3.1785,-1.50288 -0.9232,-0.002 -2.5657,-1.32696 -3.65,-2.94529 -1.0842,-1.61833 -2.1432,-2.77061 -2.3531,-2.56062 -0.5963,0.59625 -8.1755,-7.20297 -8.1755,-8.41279 0,-0.59313 -0.4217,-1.07842 -0.9371,-1.07842 -1.0855,0 -3.1803,-1.85982 -15.8129,-14.03914 -5.0875,-4.90496 -9.25,-9.30334 -9.25,-9.77418 0,-0.47085 -1.2375,-1.97084 -2.75,-3.33331 -1.5125,-1.36248 -3.64431,-3.68686 -4.73735,-5.1653 C 993.41961,331.20963 991.97666,330 991.30611,330 c -0.67056,0 -3.15125,-1.79439 -5.51265,-3.98753 -2.36141,-2.19315 -4.63096,-3.99315 -5.04346,-4 -0.4125,-0.007 -0.75,-0.66195 -0.75,-1.45577 0,-0.79381 -0.98338,-2.13208 -2.18529,-2.97393 -2.39345,-1.67643 -6.10897,-10.29763 -5.12452,-11.89051 0.33845,-0.54762 -0.14161,-1.54918 -1.0668,-2.2257 -1.51813,-1.11008 -1.52685,-1.28963 -0.0894,-1.84123 0.87603,-0.33616 1.33603,-1.02662 1.02224,-1.53435 -0.3138,-0.50773 -0.13451,-2.06998 0.39841,-3.47166 0.61971,-1.62998 0.62229,-2.76276 0.007,-3.14294 C 972.43281,293.14945 972,292.15003 972,291.25543 c 0,-0.89459 -0.94786,-2.63548 -2.10635,-3.86864 l -2.10635,-2.24211 2.10635,-2.2609 c 1.15849,-1.2435 2.10635,-2.8486 2.10635,-3.5669 0,-0.93185 1.00269,-1.14664 3.5,-0.74975 2.09159,0.3324 3.5,0.14243 3.5,-0.47211 0,-0.5656 1.64506,-2.67342 3.6557,-4.68405 3.64706,-3.64707 3.66772,-3.65318 8.75,-2.58976 2.80186,0.58627 10.2693,1.60108 16.5943,2.25513 6.325,0.65405 11.9651,1.5537 12.5335,1.99922 0.5685,0.44552 1.6692,0.41718 2.4462,-0.063 0.8087,-0.49984 2.1248,-0.49184 3.0787,0.0187 0.9361,0.50094 3.931,0.53371 6.8342,0.0748 2.8424,-0.44932 5.3889,-0.45966 5.6587,-0.023 0.486,0.78633 2.8192,0.56889 6.5286,-0.60843 1.1591,-0.36789 1.9201,-0.13785 1.9201,0.58041 0,0.91884 0.3271,0.91839 1.4361,-0.002 1.0131,-0.84081 1.9963,-0.89199 3.3383,-0.17379 1.0462,0.55993 2.9423,0.74608 4.2135,0.41366 1.6102,-0.42108 2.7327,-0.0279 3.7011,1.29647 0.9399,1.28532 1.6201,1.53607 2.1005,0.77435 1.0359,-1.64244 5.9954,-1.36657 6.662,0.37057 0.4281,1.11558 1.4553,1.31816 4.1349,0.81547 1.9608,-0.36787 4.0936,-0.25238 4.7394,0.25663 1.4811,1.16739 16.6742,2.31332 16.6742,1.25765 0,-0.42995 2.25,-0.60428 5,-0.3874 3.3483,0.26405 5,0.0118 5,-0.76362 0,-0.80422 0.3818,-0.84604 1.25,-0.13692 1.578,1.28894 9.0246,1.17407 9.9238,-0.15307 0.4355,-0.6428 1.1688,-0.58359 2.0738,0.16746 1.0265,0.85194 1.6963,0.86554 2.5109,0.051 0.8145,-0.81455 2.1287,-0.71784 4.9262,0.36252 2.2155,0.85561 5.0732,1.21284 6.8153,0.85195 1.65,-0.34182 4.0125,-0.55569 5.25,-0.47527 1.2375,0.0804 2.25,-0.28188 2.25,-0.80513 0,-0.55589 1.6628,-0.67044 4,-0.27557 2.6296,0.44427 4,0.30308 4,-0.4121 0,-1.60552 2.0836,-1.32226 4.1713,0.56709 1.0058,0.91024 1.8287,1.16594 1.8287,0.56822 0,-1.15089 3.8037,-1.08063 5.7232,0.10572 0.6262,0.38703 1.352,0.35885 1.6128,-0.0626 0.2608,-0.42147 4.2294,-0.63243 8.8191,-0.4688 19.603,0.69887 40.6485,0.76678 44.5633,0.14381 2.32,-0.36921 4.4958,-0.39454 4.8349,-0.0563 0.3392,0.33824 5.8659,0.70483 12.2817,0.81464 6.4157,0.10982 13.7545,0.48881 16.3084,0.84222 2.7085,0.3748 5.4839,0.19274 6.6605,-0.43691 1.4987,-0.80211 3.0507,-0.71474 6.0403,0.34006 3.4913,1.23181 4.1819,1.2285 5.2222,-0.0251 0.913,-1.10007 1.5269,-1.17243 2.574,-0.30342 1.7015,1.41213 30.1914,1.73134 32.3655,0.36264 1.9276,-1.21351 21.13,-1.44579 22.6551,-0.27404 0.6603,0.50731 1.3942,0.51456 1.7018,0.0168 0.2975,-0.48135 4.0501,-0.98181 8.3391,-1.11213 4.2889,-0.13031 10.6303,-0.39627 14.0919,-0.591 3.4616,-0.19473 7.7016,0.0497 9.4222,0.54314 1.7846,0.51182 3.5913,0.52234 4.2062,0.0245 1.2426,-1.00615 15.212,-0.68996 17.8405,0.40381 0.9695,0.40343 2.3195,0.29649 3,-0.23765 2.2746,-1.78534 7.16,-2.15475 9.1553,-0.69227 1.3805,1.01192 2.2777,1.10721 3.202,0.34012 0.7546,-0.62628 2.2315,-0.74264 3.582,-0.28222 3.1163,1.06246 4.1231,1.12377 5.298,0.32266 1.2548,-0.85553 11.6201,-0.32976 17.2226,0.87359 2.3225,0.49883 4.4639,0.66573 4.7587,0.3709 0.7376,-0.7376 18.1301,-0.54355 19.3591,0.21599 0.5455,0.33712 2.042,0.21717 3.3257,-0.26656 1.3333,-0.50245 3.3363,-0.50536 4.672,-0.007 1.3726,0.51233 3.0242,0.4888 3.9994,-0.0569 1.1602,-0.64929 2.1964,-0.4454 3.4355,0.67599 1.1563,1.04648 2.1149,1.26505 2.7524,0.62759 0.5885,-0.58856 3.6656,-0.69743 7.7263,-0.27337 5.3396,0.55761 6.9177,0.40746 7.5598,-0.71931 0.4463,-0.78322 1.3366,-1.09948 1.9784,-0.7028 1.0502,0.64907 8.8951,1.48747 12.7101,1.35837 9.2807,-0.31407 15.9747,-0.90384 16.925,-1.49119 0.6394,-0.39519 1.7891,-0.19856 2.5549,0.43695 1.0582,0.87821 1.9475,0.84964 3.7062,-0.11906 1.4473,-0.79722 6.9953,-1.3642 14.8139,-1.51393 6.875,-0.13165 13.5125,-0.26433 14.75,-0.29484 1.2375,-0.0305 3.0375,-0.0523 4,-0.0483 3.4374,0.014 6.7696,-0.53305 7.9793,-1.31005 0.6762,-0.43427 2.1114,-0.31756 3.1893,0.25936 1.2132,0.64927 2.1831,0.68806 2.5454,0.1018 0.3219,-0.52093 2.7118,-0.78818 5.3107,-0.59388 5.6129,0.41962 17.4635,-1.32722 18.3495,-2.70481 0.3747,-0.58255 1.6256,-0.31437 3.1292,0.67084 2.2601,1.48084 2.5639,1.48797 3.107,0.0729 0.3891,-1.01404 1.7574,-1.53422 3.8707,-1.47155 1.7979,0.0533 6.3104,-0.10754 10.0278,-0.35746 3.7174,-0.24992 7.02,-0.032 7.3391,0.48422 0.3513,0.56855 1.0848,0.51974 1.8602,-0.12379 1.9309,-1.60256 27.4767,-1.95697 29.0309,-0.40276 0.7411,0.74106 3.3314,1.14385 6.4382,1.00112 2.8591,-0.13134 5.4351,0.14434 5.7245,0.61262 0.2895,0.46829 1.1555,0.32923 1.9245,-0.30901 0.8062,-0.66907 2.1446,-0.8332 3.161,-0.38761 0.9695,0.42505 3.3377,0.83723 5.2627,0.91595 1.925,0.0787 4.3329,0.52188 5.3509,0.98478 1.2213,0.55533 2.1239,0.39998 2.6533,-0.45665 0.6047,-0.97839 2.3662,-1.1122 7.1491,-0.54309 3.4907,0.41535 7.2467,0.66232 8.3467,0.54881 2.4292,-0.25067 4.5661,-0.23528 10.7075,0.0771 2.8949,0.14727 5.364,-0.30256 6.4126,-1.16827 1.3204,-1.09013 1.8001,-1.12572 2.1259,-0.15774 0.519,1.54212 6.9478,1.66872 7.4551,0.14681 0.5259,-1.57769 18.0685,-1.08428 20.7681,0.58413 0.6401,0.39563 1.6964,0.028 2.3473,-0.81701 1.2168,-1.57963 9.1429,-2.50895 26.4076,-3.09626 4.5232,-0.15388 8.7982,-0.71791 9.5,-1.25342 0.7017,-0.5355 2.9654,-0.87141 5.0302,-0.74646 2.0649,0.12495 3.9658,-0.11493 4.2242,-0.53307 0.6363,-1.02955 7.663,-0.40965 8.4184,0.74267 0.8123,1.23921 4.2956,1.1931 5.9037,-0.0782 0.9603,-0.75912 1.4345,-0.51611 1.8124,0.92871 0.4361,1.66797 1.3759,1.95059 6.3662,1.91445 3.2199,-0.0233 6.1919,-0.3799 6.6043,-0.7924 1.2661,-1.26635 1.9159,-0.86754 3.8095,2.33822 1.2956,2.19317 2.3731,2.94469 3.718,2.593 1.1216,-0.2933 2.2861,0.18039 2.856,1.16178 0.8358,1.43934 1.4199,1.16441 4.4466,-2.093 1.9165,-2.0625 4.1342,-3.75 4.9284,-3.75 0.7942,0 1.703,-0.675 2.0196,-1.5 0.3166,-0.825 1.3773,-1.51001 2.357,-1.52224 0.9798,-0.0122 2.9064,-0.90222 4.2814,-1.97776 2.8353,-2.21778 6.0217,-2.61903 5.9561,-0.75 -0.024,0.6875 -0.6746,3.02024 -1.4454,5.18388 -0.7708,2.16363 -1.1623,4.32084 -0.87,4.7938 0.2923,0.47296 -0.041,1.54951 -0.7403,2.39234 -0.7548,0.90945 -0.8914,1.80632 -0.3361,2.2062 0.5146,0.37058 0.9357,1.57378 0.9357,2.67378 0,1.53866 0.6089,1.96005 2.6398,1.82682 l 2.6399,-0.17318 -3.5507,3.55073 c -3.0125,3.01245 -3.3748,3.83254 -2.3899,5.40962 1.6093,2.57691 1.4739,3.54362 -0.9569,6.83143 -1.1647,1.57545 -1.8448,3.30606 -1.5112,3.84582 0.3336,0.53976 -0.2275,1.19947 -1.2467,1.46602 -1.1722,0.30652 -2.0957,1.77651 -2.5128,3.99987 -0.4576,2.43946 -2.3283,5.15676 -6.1125,8.87906 -2.9992,2.95009 -5.4634,5.92631 -5.476,6.61381 -0.013,0.6875 -0.5207,1.25 -1.1291,1.25 -1.1945,0 -7.5554,4.70629 -12.3939,9.16993 -1.65,1.52217 -4.2375,3.88515 -5.75,5.25108 -1.5125,1.36592 -2.75,2.68239 -2.75,2.92549 0,0.24309 -1.35,1.88717 -3,3.6535 -1.65,1.76633 -3,3.78644 -3,4.48912 0,0.70269 -0.8946,1.51156 -1.988,1.79748 -1.0933,0.28593 -2.4322,1.68841 -2.9752,3.11663 -0.543,1.42822 -1.573,2.59677 -2.289,2.59677 -1.4111,0 -10.5969,6.45685 -14.934,10.49745 -1.4774,1.3764 -3.1649,2.50255 -3.75,2.50255 -0.5851,0 -1.0638,0.39659 -1.0638,0.88131 0,1.65669 -7.2819,6.43869 -10.8938,7.15398 -1.9834,0.39278 -4.4747,1.07476 -5.5362,1.5155 -1.8494,0.76788 -1.8599,0.70116 -0.25,-1.59722 0.924,-1.31922 1.68,-2.74845 1.68,-3.17608 0,-1.06807 -3.753,-0.98672 -4.1667,0.0903 -0.1833,0.47729 -1.4139,1.20422 -2.7346,1.61539 -2.0737,0.64562 -2.2966,0.49315 -1.6343,-1.11781 0.4218,-1.02597 1.1729,-3.6654 1.6691,-5.8654 0.8587,-3.80695 1.4698,-5.48374 3.9515,-10.8431 0.5968,-1.2887 2.6218,-4.07045 4.5,-6.18165 1.8783,-2.11121 3.415,-4.15171 3.415,-4.53446 0,-1.89704 -3.1049,-2.93453 -7.2817,-2.43315 -2.493,0.29926 -6.3121,0.14433 -8.4868,-0.34429 -2.1747,-0.48862 -6.0414,-0.5716 -8.5927,-0.18441 -2.6053,0.39538 -4.6388,0.30924 -4.6388,-0.19649 0,-0.49527 -0.3414,-0.68949 -0.7587,-0.43161 -0.4172,0.25788 -2.6549,0.12212 -4.9726,-0.3017 -2.3176,-0.42382 -4.4669,-0.51764 -4.776,-0.2085 -0.964,0.964 -8.7011,1.03064 -11.159,0.0961 -1.4989,-0.56988 -3.243,-0.47959 -4.8462,0.25089 -1.9463,0.88677 -3.0723,0.83735 -5.0511,-0.22169 -1.9515,-1.04438 -3.2212,-1.10821 -5.4335,-0.27314 -1.5879,0.59934 -3.1754,0.80115 -3.5279,0.44845 -0.3525,-0.3527 -6.3411,-0.7044 -13.308,-0.78157 -6.9668,-0.0772 -13.433,-0.45454 -14.3691,-0.83861 -0.9362,-0.38407 -2.1737,-0.40688 -2.75,-0.0507 -0.5764,0.3562 -1.6104,0.29623 -2.2979,-0.13326 -1.8688,-1.16748 -3.75,-1.28266 -3.75,-0.2296 0,0.51181 -1.1369,0.64523 -2.5263,0.29649 -1.3895,-0.34874 -6.002,-0.6918 -10.25,-0.76235 -6.409,-0.10645 -8.0105,-0.46986 -9.4086,-2.13498 -1.4244,-1.69654 -1.9969,-1.81666 -3.7036,-0.77718 -1.3567,0.82627 -2.2286,0.89005 -2.6585,0.19447 -0.3864,-0.6253 -2.5452,-0.79315 -5.453,-0.42399 -2.994,0.38009 -5.0637,0.20593 -5.4758,-0.46078 -0.3643,-0.58951 -1.1496,-0.77075 -1.745,-0.40276 -0.5954,0.368 -1.6724,-0.13751 -2.3933,-1.12335 -1.2586,-1.72134 -1.4212,-1.71959 -4.0983,0.0441 -3.1314,2.06308 -3.768,2.2439 -10.7876,3.06438 -2.75,0.32143 -5.7312,1.23183 -6.6248,2.02312 -1.6489,1.45994 -3.9022,1.49413 -4.9528,0.0752 -0.3177,-0.42907 -1.7578,-0.16786 -3.2002,0.58047 -1.4424,0.74832 -4.6701,1.32438 -7.1727,1.28012 -2.5026,-0.0443 -4.55,0.25703 -4.5498,0.66953 10e-5,0.4125 -0.8773,0.75 -1.95,0.75 -1.0727,0 -2.3567,0.72615 -2.8534,1.61366 -0.7222,1.29063 -1.3183,1.39144 -2.9772,0.50359 -1.1408,-0.61054 -2.6956,-0.87163 -3.4551,-0.5802 -0.7594,0.29144 -2.4359,-0.38518 -3.7254,-1.50358 -2.876,-2.49436 -9.037,-2.94143 -7.0185,-0.5093 0.6957,0.83829 0.9383,1.85079 0.5391,2.25 -1.0617,1.06189 -13.5592,1.06987 -13.5592,0.009 0,-0.49547 -0.4137,-0.64516 -0.9194,-0.33265 -0.5056,0.31252 -1.5771,-0.0895 -2.3809,-0.89336 -0.8039,-0.80386 -1.762,-1.16114 -2.1292,-0.79395 -0.3672,0.36719 -3.0746,0.74068 -6.0165,0.82999 -2.9419,0.0893 -5.875,0.4875 -6.518,0.8849 -0.6528,0.40345 -1.7691,-0.0945 -2.5278,-1.12761 -1.284,-1.74828 -1.4166,-1.69874 -2.4087,0.89986 -0.8584,2.24823 -1.6649,2.75 -4.4198,2.75 -2.1172,0 -4.0531,-0.75513 -5.2083,-2.03164 -2.2591,-2.49626 -8.4456,-2.20668 -11.4776,0.53725 -1.0966,0.9924 -1.9938,1.3531 -1.9938,0.80156 0,-0.55155 -1.3508,-1.04122 -3.0017,-1.08816 -1.651,-0.0469 -3.9226,-0.3776 -5.048,-0.73479 -1.1255,-0.3572 -2.6454,-0.15223 -3.3776,0.45548 -1.061,0.88051 -11.7144,0.86907 -14.5727,-0.0156 -0.275,-0.0851 -0.95,-0.23936 -1.5,-0.34277 -0.55,-0.1034 -2.3075,-0.56785 -3.9056,-1.0321 -2.2582,-0.65605 -3.1837,-0.46374 -4.154,0.86319 -0.7935,1.08522 -1.4867,1.32168 -1.9025,0.64896 -0.3597,-0.58209 -3.4404,-1.02165 -6.846,-0.97681 -3.4055,0.0448 -7.3169,-0.21634 -8.6919,-0.5804 -4.4861,-1.18781 -7,-1.34493 -7,-0.43751 0,0.48978 -1.1583,0.36273 -2.5741,-0.28233 -1.9772,-0.90088 -3.0175,-0.89591 -4.4864,0.0214 -2.6372,1.64696 -3.9395,1.49466 -3.9395,-0.46072 0,-1.50757 -0.1721,-1.4992 -1.9326,0.094 -1.0629,0.96192 -1.6897,2.38166 -1.393,3.15499 0.5201,1.35523 -1.5413,1.88633 -5.765,1.48534 -0.8748,-0.0831 -2.7714,0.29793 -4.2146,0.84664 -1.7882,0.67987 -2.8305,0.66354 -3.2723,-0.0513 -0.3565,-0.5769 -1.525,-0.81963 -2.5965,-0.53941 -1.1574,0.30265 -2.1739,-0.0783 -2.504,-0.93841 -0.4267,-1.11215 -0.8763,-1.1817 -1.9388,-0.29993 -1.0357,0.85953 -1.7282,0.86161 -2.7565,0.008 -1.9666,-1.63219 -4.8971,-0.24719 -4.3009,2.03272 0.723,2.76481 -3.97,2.55844 -4.8497,-0.21327 -0.3623,-1.14145 -0.3926,-2.34145 -0.067,-2.66667 0.3252,-0.32522 0.5913,-0.0663 0.5913,0.57536 0,0.64167 0.675,1.16667 1.5,1.16667 1.8967,0 1.8989,-0.74395 0.01,-2.63519 -0.8208,-0.82078 -1.9182,-1.22917 -2.4386,-0.90754 -0.5204,0.32164 -1.3606,-0.1557 -1.8671,-1.06076 -0.5417,-0.96793 -2.523,-1.7873 -4.8114,-1.98979 -7.8831,-0.69749 -13.4499,-1.69373 -13.9456,-2.49569 -0.8168,-1.32159 -3.442,0.14773 -3.4768,1.94596 -0.028,1.44694 -0.1772,1.46382 -1.25,0.14145 -0.9776,-1.20498 -3.5883,-1.46424 -13.2182,-1.31265 -6.6,0.10389 -14.8421,0.18659 -18.3159,0.18376 -3.4737,-0.003 -6.9396,0.51255 -7.702,1.14528 -0.7624,0.63272 -2.256,0.87433 -3.3191,0.53691 -2.8631,-0.90871 -10.4021,1.06708 -11.9886,3.14189 -1.2812,1.67551 -1.3327,1.64338 -0.7104,-0.44363 0.7812,-2.62051 0.6262,-2.64275 -5.964,-0.85519 -4.7322,1.28358 -4.8661,1.40941 -2.5,2.34931 1.375,0.54619 3.017,0.79653 3.6488,0.55631 1.5861,-0.60299 2.6023,1.33306 1.8854,3.59188 -0.5321,1.67652 -1.4099,1.82415 -8.3146,1.39831 -4.2458,-0.26185 -8.3946,-0.46751 -9.2196,-0.45702 -17.6586,0.22467 -25.1641,0.62293 -25.6193,1.35941 -0.314,0.50807 -1.1706,0.39632 -1.9555,-0.25511 -1.5776,-1.30928 -10.3157,-1.92402 -11.0255,-0.77566 -0.2543,0.41149 -2.4515,-0.30946 -4.8827,-1.60213 -2.9256,-1.55558 -4.5507,-1.9631 -4.806,-1.2052 -0.2724,0.80863 -0.883,0.7346 -2.078,-0.25193 -1.2883,-1.06359 -2.2526,-1.14171 -4.0399,-0.32733 -1.6818,0.76624 -2.6595,0.75792 -3.4468,-0.0293 -0.7987,-0.79872 -1.6585,-0.59277 -3.1463,0.7537 -1.5695,1.42035 -2.3218,1.5782 -3.2236,0.67637 -1.4241,-1.42408 -12.7764,-1.58624 -12.7764,-0.1825 0,1.14776 -6.0861,0.56225 -8.724,-0.83928 -0.9768,-0.51897 -3.576,-1.01573 -5.776,-1.1039 -19.555,-0.78375 -25.2311,-0.78347 -33.5,0.002 -12.1076,1.14961 -16.2661,1.25686 -28.2591,0.72883 -5.3675,-0.23633 -10.0173,-0.17127 -10.3328,0.14457 -0.3156,0.31584 -6.1157,0.63189 -12.8892,0.70235 -6.7735,0.0704 -12.8152,0.437 -13.4261,0.81454 -0.6109,0.37755 -1.8942,0.43821 -2.8517,0.13481 -0.9576,-0.30341 -2.9959,0.0998 -4.5295,0.89608 -1.91,0.99167 -3.522,1.16885 -5.117,0.56242 -1.3073,-0.49701 -3.9701,-0.51511 -6.071,-0.0413 -2.0584,0.46423 -5.2682,0.59646 -7.133,0.29384 -4.3417,-0.70455 -4.5325,1.31712 -0.5593,5.92667 1.5572,1.80664 3.1181,4.0723 3.4686,5.0348 0.3505,0.9625 1.3752,1.75 2.2771,1.75 1.219,0 1.4894,0.59937 1.0537,2.33535 -0.4014,1.59908 0.094,3.06542 1.5713,4.65106 1.1865,1.27365 2.3026,3.64231 2.4801,5.26369 0.1775,1.62138 1.2217,4.21037 2.3203,5.7533 2.4747,3.47539 2.493,4.50119 0.1226,6.8716 -1.0312,1.03125 -2.2687,3.05214 -2.75,4.49087 l -0.875,2.61588 -4.5,-2.9866 z m 214.2698,-48.86499 C 1287.1101,346.28995 1286.0659,346 1282.2,346 c -4.8305,0 -6.1734,0.6933 -4.5287,2.338 0.9886,0.9886 7.2868,0.10389 8.5985,-1.20784 z M 1355,354.52568 c 0,-1.04722 5.9248,-3.45633 6.4421,-2.61942 0.3055,0.4944 -0.8611,1.39275 -2.5925,1.99633 -3.5542,1.23899 -3.8496,1.2868 -3.8496,0.62309 z M 1372,353 c 0,-0.55 0.6484,-1 1.441,-1 0.7925,0 1.7191,0.45 2.059,1 0.3399,0.55 -0.3085,1 -1.441,1 -1.1324,0 -2.059,-0.45 -2.059,-1 z m 7.5,-1 c 0.3399,-0.55 1.0415,-1 1.559,-1 0.5176,0 0.941,0.45 0.941,1 0,0.55 -0.7016,1 -1.559,1 -0.8575,0 -1.2809,-0.45 -0.941,-1 z m -74.4211,-2.58333 c 0.048,-1.16495 0.285,-1.4019 0.6042,-0.60417 0.2889,0.72187 0.2534,1.58438 -0.079,1.91667 -0.3323,0.33229 -0.5687,-0.25834 -0.5253,-1.3125 z"
       id="path722"
       sodipodi:nodetypes="cssssssssssscsssscssssssssssscssssssssssssssscsssscssssssssssssssscssssscssscssssssssssssssssssssccccssscssssssssscsssscsssssssssssssssssssssssssssssssssssssssscsssssssssssssssssssssssssscssscssscssssssssssssccccssscscsssssssssssssssssssssssssssssssscssscsssssssssssssscssssssssssssscssssssssssssssssssssssssssssssssssccscsssssssssssssssssscsssssssssssscssssscscsssssssssssssssssssssssssssssssssssssscsssssssscsssssssssscsssssccscsscsscsssssssssssssscsssssssssssssssssssssssssssssssscssssssssssssssssssssssssssssssssssssssssssssssssssssscsssssscscsscsssssscssssssssscsssssssscssssssscsssssscssssssssssssscsssssssssssssssssscccsssssssscssssssssssssssssssssssssssssssssssscssssssssssssssssssscssssssssssssssssssssssssssssssssssssssssssssssssssssssssssssssssssssssssssssssssssscssssssssssscsssssssscsssssssssssssssssssssssssssssssssssssssssssssssssssssssssssssssssssssssssssssssssssscssssssssssssssssssssssssssssssssssssssssssssssssssssssssssssssssssssssssssssssssssccsssssssssssssssssssscscssssssssssssccsssssssssssssssssssssssssssssssssssssssssssssssssssssssssscssssssscssssssssssssscssssssssssssssssssssssssssscssssssssssssssssssssssssssssssssssssssssssssssssssssssssscsssssssssssssssssssssssssssssssssssssssssssssssscssssscccsssssssscssssssscsscssssssssssscssssssssssssssssssssssssssssssssssssssssssssssssssssscsssssssssssscssssssssssssssssssssssssssssssssssssssssssssssssssscssssssscssssssssssssssssssssssssssssssssssssssssssssssssssssssssssssssssssssssssssssssssssssssssssssssssscsscsscssssssscssscssssscssssssssssssscssssssssssssscscsccccsssssssssssssssssssssss" />
  </g>
</svg>
