<?xml version="1.0" encoding="UTF-8" standalone="no"?>
<!-- Created with Inkscape (http://www.inkscape.org/) -->

<svg
   width="154.92584mm"
   height="160.57738mm"
   viewBox="0 0 154.92584 160.57738"
   version="1.1"
   id="svg460"
   xml:space="preserve"
   inkscape:version="1.2 (dc2aedaf03, 2022-05-15)"
   sodipodi:docname="NEXAL.svg"
   xmlns:inkscape="http://www.inkscape.org/namespaces/inkscape"
   xmlns:sodipodi="http://sodipodi.sourceforge.net/DTD/sodipodi-0.dtd"
   xmlns="http://www.w3.org/2000/svg"
   xmlns:svg="http://www.w3.org/2000/svg"><sodipodi:namedview
     id="namedview462"
     pagecolor="#505050"
     bordercolor="#eeeeee"
     borderopacity="1"
     inkscape:showpageshadow="0"
     inkscape:pageopacity="0"
     inkscape:pagecheckerboard="0"
     inkscape:deskcolor="#505050"
     inkscape:document-units="mm"
     showgrid="false"
     inkscape:zoom="0.7180275"
     inkscape:cx="217.95823"
     inkscape:cy="447.05809"
     inkscape:window-width="1920"
     inkscape:window-height="1009"
     inkscape:window-x="1912"
     inkscape:window-y="-8"
     inkscape:window-maximized="1"
     inkscape:current-layer="layer1" /><defs
     id="defs457" /><g
     inkscape:label="Layer 1"
     inkscape:groupmode="layer"
     id="layer1"
     transform="translate(-47.134693,-30.250675)"><path
       style="fill:#000000;stroke-width:0.264583"
       d="m 125.14452,189.83603 c -0.1589,-0.54571 -0.35975,-1.61727 -0.44632,-2.38125 -0.19039,-1.68002 -0.48034,-1.78538 -0.72816,-0.26459 -0.18279,1.12171 -0.18414,1.12285 -0.54751,0.46302 -0.20034,-0.3638 -0.44448,-1.28653 -0.54251,-2.05052 -0.28049,-2.18566 -0.62924,-1.62137 -0.48866,0.79066 0.2404,4.1245 -1.11529,0.54506 -1.47691,-3.89951 -0.19267,-2.36798 -0.47152,-8.57243 -0.52916,-11.77396 -0.0218,-1.20985 -0.52451,0.0266 -0.52892,1.30087 -0.002,0.64272 -0.0755,1.09713 -0.16283,1.0098 -0.0873,-0.0873 -0.15006,-2.99811 -0.13942,-6.46841 0.0106,-3.47031 -0.0901,-7.73472 -0.22382,-9.47647 -0.39797,-5.18289 -0.79917,-23.54086 -0.5942,-27.18869 0.14534,-2.58647 0.0945,-3.89053 -0.2155,-5.53137 l -0.40567,-2.14702 -1.80864,-1.10159 c -3.03766,-1.85017 -7.30189,-6.14462 -7.30189,-7.35364 0,-0.61531 -1.04603,-1.51508 -1.79625,-1.5451 -4.9865,-0.1995 -17.424149,-0.55418 -20.29646,-0.57879 -4.928103,-0.0422 -23.423187,0.92037 -27.091844,1.41001 -1.076034,0.14361 -3.598547,0.26636 -5.605584,0.27276 -3.15477,0.0101 -3.801552,-0.062 -4.773999,-0.53181 -0.618662,-0.29891 -1.288097,-0.54347 -1.487635,-0.54347 -0.777799,0 -0.01876,-0.4698 1.051636,-0.6509 1.068975,-0.18087 1.094431,-0.20523 0.468884,-0.44876 -0.363802,-0.14162 -0.93219,-0.20623 -1.263086,-0.14357 -0.330893,0.0627 -0.665343,0.0108 -0.743217,-0.11517 -0.07788,-0.126 0.01426,-0.23747 0.20475,-0.2477 0.19049,-0.0102 0.10822,-0.11564 -0.182822,-0.23426 -0.496075,-0.20218 -0.487801,-0.22494 0.132292,-0.36383 0.363802,-0.0815 1.256771,-0.2408 1.984375,-0.35401 l 1.322917,-0.20585 -1.719792,-0.13933 -1.719792,-0.13933 1.322917,-0.65032 1.322917,-0.65032 -0.992188,-0.0933 c -1.27636,-0.11996 -1.27636,-0.51987 0,-0.72928 0.545703,-0.0895 1.647031,-0.30328 2.447396,-0.47501 l 1.455208,-0.31222 -1.653646,-0.0788 c -0.909505,-0.0433 -1.653645,-0.17668 -1.653645,-0.29635 0,-0.11966 0.565547,-0.36929 1.25677,-0.55472 0.691224,-0.18542 1.615268,-0.55021 2.053434,-0.81063 0.438164,-0.26042 1.390664,-0.53755 2.116667,-0.61584 2.578283,-0.27806 9.261163,-0.79012 9.49062,-0.7272 0.128212,0.0352 0.842587,-0.0548 1.5875,-0.19981 0.74491,-0.14506 2.068758,-0.33197 2.941883,-0.41536 0.873125,-0.0834 1.944688,-0.19811 2.38125,-0.25494 0.436563,-0.0568 2.162969,-0.17707 3.836459,-0.26722 1.673489,-0.0901 3.876146,-0.22994 4.894791,-0.31066 1.018646,-0.0807 6.816254,-0.18431 12.883573,-0.23022 6.067317,-0.0459 11.143381,-0.15262 11.280131,-0.23714 0.13675,-0.0845 1.18464,-0.22214 2.32865,-0.30583 1.42293,-0.10409 2.14825,-0.2741 2.29603,-0.53815 0.11881,-0.2123 0.32798,-0.3168 0.46483,-0.23222 0.31246,0.19311 0.84274,-1.145145 0.60572,-1.52865 -0.099,-0.160182 -0.0514,-0.206825 0.10957,-0.107344 0.1641,0.10142 0.67923,-0.469498 1.21645,-1.348185 1.02702,-1.679824 2.7122,-3.265395 4.61599,-4.343138 l 1.24072,-0.702376 0.0292,-4.192416 c 0.0478,-6.85478 0.15664,-9.34991 0.4012,-9.198758 0.12706,0.07853 0.23102,0.39769 0.23102,0.709247 0,0.398754 0.083,0.483494 0.28025,0.286221 0.17688,-0.176882 0.25007,-1.516153 0.19844,-3.631025 -0.0697,-2.853762 -0.029,-3.281175 0.27457,-2.881525 0.30147,0.396934 0.33412,-0.244358 0.21183,-4.160954 -0.1674,-5.361847 -0.52518,-8.769125 -1.05697,-10.065819 -0.68421,-1.668391 -0.86909,-7.34282 -0.54271,-16.657098 0.12341,-3.521544 0.25435,-4.725237 0.54688,-5.027084 0.69688,-0.719061 1.14604,0.343846 1.14604,2.712019 0,1.320432 0.0968,2.021912 0.26459,1.91819 0.14913,-0.09217 0.26458,-1.372529 0.26458,-2.934335 0,-2.218871 0.0791,-2.801152 0.39688,-2.92311 0.24487,-0.09397 0.39687,-0.496119 0.39687,-1.05003 0,-0.493753 0.11906,-0.897734 0.26458,-0.897734 0.14553,0 0.26459,-0.178594 0.26459,-0.396875 0,-0.585287 0.55627,-0.482663 0.71708,0.132292 0.17813,0.681164 0.50532,0.677534 0.68448,-0.0076 0.0772,-0.295219 0.29364,-0.503578 0.48098,-0.463021 0.18734,0.04056 0.49,-0.342978 0.67259,-0.852301 0.30622,-0.854196 0.34554,-0.879855 0.50678,-0.330729 0.34006,1.158086 0.89494,0.345367 0.90323,-1.322917 0.005,-1.048135 0.43576,-0.894964 0.74373,0.264584 0.14494,0.545703 0.27582,0.783828 0.29087,0.529166 0.0423,-0.716385 0.523,-0.546785 0.7499,0.264584 0.11192,0.400182 0.18852,4.180416 0.17022,8.400521 -0.0768,17.718731 -0.0734,21.26587 0.0225,23.151042 0.0555,1.091406 0.1143,4.544219 0.13073,7.672917 0.0195,3.712409 0.11733,5.550673 0.28165,5.291667 0.13848,-0.218281 0.26548,-0.873125 0.28221,-1.455208 0.0167,-0.582084 0.13591,-1.35599 0.26484,-1.719792 0.14248,-0.402048 0.18365,1.575308 0.10496,5.041982 -0.10192,4.490516 -0.0483,5.981608 0.2523,7.011459 0.20996,0.71941 0.40837,2.022393 0.44091,2.895518 0.0725,1.945007 0.21197,2.447128 0.53899,1.940414 0.18641,-0.28884 0.27506,-0.28086 0.48829,0.04396 0.40657,0.619331 0.31625,0.867918 -0.26053,0.717087 -0.37241,-0.09739 -0.52839,-0.0085 -0.52656,0.299871 0.003,0.448945 3.53478,2.292347 3.9274,2.049698 0.10852,-0.06708 0.71418,0.287051 1.34589,0.786945 0.63172,0.499895 1.24516,0.908899 1.36321,0.908899 0.32569,0 1.80749,2.253459 3.02466,4.599779 l 1.08714,2.095652 2.21998,-0.0587 c 1.22099,-0.0323 2.31969,-0.1203 2.44154,-0.19561 0.23111,-0.14283 0.34344,-0.15802 4.43133,-0.59925 5.15064,-0.55593 17.75739,-0.0515 20.10833,0.80455 l 0.92604,0.33721 -0.92604,0.20775 c -0.50932,0.11427 -3.21795,0.17306 -6.01916,0.13066 -2.80121,-0.0424 -4.95002,0.0113 -4.77513,0.11942 0.17489,0.10809 0.39597,0.14833 0.49129,0.0894 0.17105,-0.10572 0.99212,0.0212 5.14362,0.79529 2.36944,0.44179 7.30951,0.51895 9.92188,0.15497 2.70205,-0.37647 5.705,-0.60673 8.86354,-0.67963 1.60073,-0.037 4.27964,-0.1703 5.95313,-0.29633 2.67415,-0.20139 4.22826,-0.22656 7.60677,-0.12317 0.54601,0.0167 0.85989,0.16084 0.85989,0.39488 0,0.53385 -0.59704,0.68783 -2.73362,0.70501 -1.04312,0.008 -2.37284,0.11376 -2.95492,0.23416 -0.84495,0.17477 -0.47154,0.23157 1.85208,0.2817 4.29235,0.0926 4.85198,0.13164 5.07428,0.35393 0.30234,0.30235 -0.40823,0.65329 -1.99371,0.98466 -2.10644,0.44025 -1.3372,0.78785 1.7679,0.79886 1.49508,0.005 2.69216,0.12001 2.69216,0.25799 0,0.13665 -0.34231,0.24845 -0.76068,0.24845 -0.41837,0 -1.14235,0.0763 -1.60884,0.16964 -1.26606,0.25321 -0.45614,0.61156 1.44348,0.63866 0.87312,0.0125 1.82562,0.1197 2.11666,0.23832 0.47488,0.19354 0.44773,0.23473 -0.26458,0.40142 -2.11559,0.49508 -2.19805,0.56547 -0.92543,0.7899 l 1.19001,0.20986 -1.14498,0.299 c -0.62974,0.16445 -1.05638,0.3876 -0.94809,0.49589 0.10829,0.10829 -0.0968,0.1969 -0.45575,0.1969 -0.35895,0 -0.76574,0.11292 -0.90399,0.25093 -0.13824,0.13801 -1.06506,0.4052 -2.05959,0.59374 -1.89966,0.36013 -1.7176,0.66013 0.43479,0.71645 0.55429,0.0145 0.93917,0.13743 0.85528,0.27316 -0.35074,0.56752 -3.43805,0.79916 -12.31412,0.92394 -5.16599,0.0726 -11.05959,0.19312 -13.09688,0.26778 -5.69574,0.20872 -31.38205,0.24296 -32.29188,0.043 -0.73824,-0.16221 -0.84649,-0.0933 -1.27965,0.81509 -0.46407,0.97316 -1.71559,2.72428 -2.52953,3.53932 -0.22629,0.22659 -0.70932,0.76617 -1.0734,1.19905 -0.71857,0.85438 -2.98,2.4289 -4.56356,3.17738 -0.5457,0.25793 -1.00843,0.65527 -1.02828,0.88297 -0.0198,0.22772 -0.0654,0.77121 -0.1013,1.20777 -0.0359,0.43656 -0.1305,3.27596 -0.2103,6.30977 -0.0798,3.03381 -0.21282,5.58373 -0.29558,5.66649 -0.0828,0.0828 -0.16142,-0.19679 -0.17479,-0.62122 -0.0134,-0.42444 -0.0497,-1.06936 -0.0807,-1.43316 -0.031,-0.3638 -0.0832,-1.4949 -0.11603,-2.51354 -0.0485,-1.50767 -0.11446,-1.75753 -0.3547,-1.34363 -0.20351,0.35064 -0.25001,2.07524 -0.14982,5.55625 0.0799,2.77629 0.0496,4.75014 -0.0673,4.38633 -0.11695,-0.3638 -0.2245,-2.29856 -0.23901,-4.29948 -0.0145,-2.00091 -0.13411,-3.63802 -0.26579,-3.63802 -0.25871,0 -0.21614,7.89838 0.0556,10.31875 0.29352,2.61416 0.43588,4.82328 0.60527,9.39271 0.0917,2.47386 0.21298,4.54753 0.2695,4.60816 0.0565,0.0606 0.10277,-0.32632 0.10277,-0.85989 -1e-5,-0.53358 0.12591,-0.97014 0.27982,-0.97014 0.18957,0 0.2568,1.66022 0.20844,5.14732 -0.0393,2.83103 0.0134,5.23213 0.11704,5.33577 0.10364,0.10364 0.18844,-0.01 0.18844,-0.25254 0,-0.80324 0.5022,-0.45691 0.67528,0.4657 0.25436,1.35584 -0.0457,7.93567 -0.46685,10.23866 -0.25508,1.39473 -0.34227,3.51751 -0.28255,6.87916 0.0857,4.8227 0.0812,4.86818 -0.55752,5.63035 l -0.64389,0.76838 -0.2868,-1.03296 c -0.15774,-0.56813 -0.29933,-1.62828 -0.31465,-2.35588 -0.0153,-0.72761 -0.11267,-1.62058 -0.21634,-1.98438 -0.17137,-0.60142 -0.20474,-0.56539 -0.36759,0.39688 -0.0985,0.58208 -0.18041,2.16669 -0.18201,3.52134 -0.002,1.57394 -0.0984,2.40398 -0.2675,2.29949 -0.14552,-0.0899 -0.27645,-0.66251 -0.29095,-1.27239 -0.0145,-0.60987 -0.13102,-1.40652 -0.25892,-1.77032 -0.15442,-0.43923 -0.20116,0.16078 -0.13914,1.78594 0.0514,1.34607 0.0544,2.44739 0.007,2.44739 -0.0476,0 -0.21665,-0.44648 -0.37556,-0.99218 z m 5.26496,-69.4043 c 1.18573,-0.61804 2.04996,-1.44668 1.18807,-1.13915 -0.27524,0.0982 -0.67904,0.32498 -0.89732,0.50393 -0.21828,0.17895 -0.66476,0.407 -0.99219,0.50678 -0.32742,0.0998 -0.59531,0.29245 -0.59531,0.42817 0,0.34439 0.10956,0.31906 1.29675,-0.29973 z m -2.75196,-5.21288 c 1.18942,-0.42298 2.11756,-0.95414 2.59405,-1.48454 0.40808,-0.45424 1.0102,-1.12355 1.33804,-1.48735 1.23615,-1.37174 2.15992,-4.64289 1.88194,-6.66409 -0.20644,-1.50097 -2.24212,-4.82931 -3.50272,-5.726925 -1.01164,-0.720352 -2.83816,-1.502082 -4.0311,-1.725264 -0.50932,-0.09529 -1.16417,-0.21936 -1.45521,-0.275714 -0.90494,-0.175231 -3.57067,0.357756 -4.72196,0.944105 -3.30466,1.683068 -4.57878,3.368008 -5.23116,6.917888 -0.38951,2.11952 -0.0252,4.52071 0.88895,5.85856 2.92627,4.28268 7.01708,5.50043 12.23917,3.64333 z m -17.15542,-1.45578 c -0.39798,-0.95251 -0.96854,-1.52253 -0.96854,-0.96764 0,0.40632 1.08145,2.16244 1.23631,2.00759 0.0647,-0.0647 -0.0558,-0.53266 -0.26777,-1.03995 z m 0.35438,-13.17049 c 0,-0.55346 1.83492,-3.127392 3.07998,-4.320454 0.70145,-0.67215 1.90247,-1.549736 2.66894,-1.950191 0.76646,-0.400454 1.39386,-0.817395 1.3942,-0.926536 0.001,-0.409639 -0.7419,-0.172273 -1.93503,0.618022 -2.1439,1.420061 -3.85801,3.150023 -4.81275,4.85726 -0.99462,1.778549 -1.06745,1.999199 -0.65992,1.999199 0.14552,0 0.26458,-0.12478 0.26458,-0.2773 z m 4.90232,-4.651582 c 0.4407,-0.330412 1.33367,-0.842251 1.98437,-1.137415 0.77433,-0.351245 0.99159,-0.538673 0.62881,-0.542478 -0.58163,-0.0061 -3.59951,1.818656 -3.95256,2.389907 -0.24258,0.392494 0.13783,0.190836 1.33938,-0.710014 z m 19.19755,0.473535 c -0.37448,-0.699725 -2.91217,-2.598394 -4.49074,-3.35992 -1.6278,-0.785278 -1.61746,-0.784498 -1.61746,-0.122235 0,0.309197 0.17639,0.529167 0.42433,0.529167 0.6205,0 3.79203,1.723334 4.86733,2.644791 1.08311,0.92814 1.16483,0.958985 0.81654,0.308197 z m -7.10515,47.582427 c 0,-0.50932 0.0544,-0.71768 0.121,-0.46302 0.0665,0.25466 0.0665,0.67138 0,0.92604 -0.0666,0.25467 -0.121,0.0463 -0.121,-0.46302 z m 0.77414,-5.55625 c 0,-0.3638 0.0601,-0.51263 0.13345,-0.33073 0.0734,0.1819 0.0734,0.47956 0,0.66146 -0.0734,0.1819 -0.13345,0.0331 -0.13345,-0.33073 z m -0.0209,-1.21267 c 0.0127,-0.30823 0.0754,-0.37092 0.15985,-0.15985 0.0764,0.19099 0.067,0.4192 -0.0209,0.50712 -0.0879,0.0879 -0.15045,-0.0684 -0.13897,-0.34727 z"
       id="path476"
       sodipodi:nodetypes="cssssssscsscsccsscsscsssscscssscccccccsccssscccsccssssssssssccsssccsssssssssssssssscscscssscssssssscsssscsssscsssssscssscsssscsscsssscssssssssscsssscssssscsscsssssssssssssscsssscsssssccssssssssssssssscsssssssscssssssssssssssssccsscsssssss" /></g></svg>
